<?xml version="1.0" encoding="UTF-8" standalone="no"?>
<!-- Created with Inkscape (http://www.inkscape.org/) -->

<svg
   xmlns:dc="http://purl.org/dc/elements/1.1/"
   xmlns:cc="http://creativecommons.org/ns#"
   xmlns:rdf="http://www.w3.org/1999/02/22-rdf-syntax-ns#"
   xmlns:svg="http://www.w3.org/2000/svg"
   xmlns="http://www.w3.org/2000/svg"
   xmlns:xlink="http://www.w3.org/1999/xlink"
   xmlns:sodipodi="http://sodipodi.sourceforge.net/DTD/sodipodi-0.dtd"
   xmlns:inkscape="http://www.inkscape.org/namespaces/inkscape"
   width="1073.4904"
   height="1256.5942"
   id="svg2"
   version="1.1"
   inkscape:version="0.48.4 r9939"
   sodipodi:docname="stereogrid.svg">
  <defs
     id="defs4">
    <marker
       inkscape:stockid="Arrow1Lstart"
       orient="auto"
       refY="0.0"
       refX="0.0"
       id="Arrow1Lstart"
       style="overflow:visible">
      <path
         id="path3889"
         d="M 0.0,0.0 L 5.0,-5.0 L -12.5,0.0 L 5.0,5.0 L 0.0,0.0 z "
         style="fill-rule:evenodd;stroke:#000000;stroke-width:1.0pt"
         transform="scale(0.8) translate(12.5,0)" />
    </marker>
    <marker
       inkscape:stockid="Arrow1Lend"
       orient="auto"
       refY="0.0"
       refX="0.0"
       id="Arrow1Lend"
       style="overflow:visible;">
      <path
         id="path4146"
         d="M 0.0,0.0 L 5.0,-5.0 L -12.5,0.0 L 5.0,5.0 L 0.0,0.0 z "
         style="fill-rule:evenodd;stroke:#000000;stroke-width:1.0pt;"
         transform="scale(0.8) rotate(180) translate(12.5,0)" />
    </marker>
    <linearGradient
       id="linearGradient3876">
      <stop
         style="stop-color:#ffffff;stop-opacity:1;"
         offset="0"
         id="stop3878" />
      <stop
         style="stop-color:#ffffff;stop-opacity:0.00392157;"
         offset="1"
         id="stop3880" />
    </linearGradient>
    <linearGradient
       id="linearGradient3864">
      <stop
         id="stop3866"
         offset="0"
         style="stop-color:#ff00d8;stop-opacity:1;" />
      <stop
         id="stop3868"
         offset="1"
         style="stop-color:#1e00ff;stop-opacity:1;" />
    </linearGradient>
    <linearGradient
       id="linearGradient3852">
      <stop
         style="stop-color:#ff0000;stop-opacity:1;"
         offset="0"
         id="stop3854" />
      <stop
         style="stop-color:#009600;stop-opacity:1;"
         offset="1"
         id="stop3856" />
    </linearGradient>
    <linearGradient
       inkscape:collect="always"
       xlink:href="#linearGradient3852"
       id="linearGradient3858"
       x1="841.42859"
       y1="769.14288"
       x2="841.42859"
       y2="903.45898"
       gradientUnits="userSpaceOnUse" />
    <linearGradient
       inkscape:collect="always"
       xlink:href="#linearGradient3864"
       id="linearGradient3870"
       gradientUnits="userSpaceOnUse"
       x1="841.42859"
       y1="769.14288"
       x2="841.42859"
       y2="903.45898"
       gradientTransform="translate(0,40)" />
    <linearGradient
       inkscape:collect="always"
       xlink:href="#linearGradient3876"
       id="linearGradient3874"
       gradientUnits="userSpaceOnUse"
       x1="768.57147"
       y1="834.85718"
       x2="904.40729"
       y2="834.85718"
       gradientTransform="translate(0,40)" />
    <linearGradient
       inkscape:collect="always"
       xlink:href="#linearGradient3876"
       id="linearGradient3886"
       gradientUnits="userSpaceOnUse"
       gradientTransform="translate(0,40)"
       x1="768.57147"
       y1="834.85718"
       x2="904.40729"
       y2="834.85718" />
    <mask
       maskUnits="userSpaceOnUse"
       id="mask3882">
      <rect
         style="fill:url(#linearGradient3886);fill-opacity:1;stroke:#ff0000;stroke-width:0.1;stroke-linejoin:round;stroke-miterlimit:4;stroke-opacity:0.77184466;stroke-dasharray:none;stroke-dashoffset:0"
         id="rect3884"
         width="138.57141"
         height="138.57149"
         x="768.57141"
         y="807.71429" />
    </mask>
    <linearGradient
       inkscape:collect="always"
       xlink:href="#linearGradient3852"
       id="linearGradient3892"
       gradientUnits="userSpaceOnUse"
       x1="841.42859"
       y1="769.14288"
       x2="841.42859"
       y2="903.45898" />
    <linearGradient
       inkscape:collect="always"
       xlink:href="#linearGradient3864"
       id="linearGradient3894"
       gradientUnits="userSpaceOnUse"
       gradientTransform="translate(0,40)"
       x1="841.42859"
       y1="769.14288"
       x2="841.42859"
       y2="903.45898" />
    <linearGradient
       inkscape:collect="always"
       xlink:href="#linearGradient3864"
       id="linearGradient3953"
       gradientUnits="userSpaceOnUse"
       gradientTransform="translate(0,40)"
       x1="841.42859"
       y1="769.14288"
       x2="841.42859"
       y2="903.45898" />
    <linearGradient
       inkscape:collect="always"
       xlink:href="#linearGradient3852"
       id="linearGradient3978"
       gradientUnits="userSpaceOnUse"
       x1="841.42859"
       y1="769.14288"
       x2="841.42859"
       y2="903.45898" />
    <linearGradient
       inkscape:collect="always"
       xlink:href="#linearGradient3864"
       id="linearGradient3980"
       gradientUnits="userSpaceOnUse"
       gradientTransform="translate(0,40)"
       x1="841.42859"
       y1="769.14288"
       x2="841.42859"
       y2="903.45898" />
  </defs>
  <sodipodi:namedview
     id="base"
     pagecolor="#ffffff"
     bordercolor="#666666"
     borderopacity="1.0"
     inkscape:pageopacity="0.0"
     inkscape:pageshadow="2"
     inkscape:zoom="0.45254834"
     inkscape:cx="266.22962"
     inkscape:cy="820.22558"
     inkscape:document-units="px"
     inkscape:current-layer="layer15"
     showgrid="false"
     fit-margin-top="0"
     fit-margin-left="0"
     fit-margin-right="0"
     fit-margin-bottom="0"
     inkscape:window-width="1366"
     inkscape:window-height="723"
     inkscape:window-x="0"
     inkscape:window-y="0"
     inkscape:window-maximized="1"
     showguides="true"
     inkscape:guide-bbox="true"
     inkscape:object-paths="false"
     inkscape:object-nodes="true" />
  <metadata
     id="metadata7">
    <rdf:RDF>
      <cc:Work
         rdf:about="">
        <dc:format>image/svg+xml</dc:format>
        <dc:type
           rdf:resource="http://purl.org/dc/dcmitype/StillImage" />
        <dc:title />
      </cc:Work>
    </rdf:RDF>
  </metadata>
  <g
     inkscape:groupmode="layer"
     id="layer11"
     inkscape:label="black"
     style="display:none"
     transform="translate(78.230484,80.479654)">
    <rect
       style="fill:#000000;fill-opacity:1;stroke:#ff0000;stroke-width:1;stroke-linejoin:round;stroke-miterlimit:4;stroke-opacity:0.77184466;stroke-dasharray:1, 2;stroke-dashoffset:0"
       id="rect3837"
       width="904.28571"
       height="808.57141"
       x="8.5714283"
       y="56.285713" />
  </g>
  <g
     inkscape:label="StereoGrid"
     inkscape:groupmode="layer"
     id="layer1"
     transform="translate(164.80191,24.117464)"
     style="opacity:0.18483414;display:inline"
     sodipodi:insensitive="true">
    <image
       y="56.362186"
       x="-86.571426"
       id="image3047"
       xlink:href="file:///media/sagemuej/Zinc:R301WkSpace/physics/lect/geo-seis/WS1516/Ex6/stereogrid.png"
       height="912"
       width="916"
       inkscape:transform-center-x="7.0710678"
       inkscape:transform-center-y="-2.0089286" />
  </g>
  <g
     transform="translate(164.80191,24.117464)"
     id="g3069"
     inkscape:groupmode="layer"
     inkscape:label="StereoGrid rotatable"
     style="display:none">
    <image
       inkscape:transform-center-y="2.5166747"
       inkscape:transform-center-x="6.9065813"
       width="916"
       height="912"
       xlink:href="file:///media/sagemuej/Zinc:R301WkSpace/physics/lect/geo-seis/WS1516/Ex6/stereogrid.png"
       id="image3071"
       x="-459.88422"
       y="180.59315"
       transform="matrix(0.81022457,-0.58611956,0.58611956,0.81022457,0,0)" />
  </g>
  <g
     inkscape:groupmode="layer"
     id="layer10"
     inkscape:label="c-"
     style="display:inline"
     transform="translate(78.230484,80.479654)"
     sodipodi:insensitive="true">
    <path
       sodipodi:type="arc"
       id="path3834"
       style="fill:#548a0b;fill-opacity:1;stroke:none"
       sodipodi:cx="705.71429"
       sodipodi:cy="504.67856"
       sodipodi:rx="1.5"
       sodipodi:ry="1.5"
       d="m 707.21429,504.67856 c 0,0.82843 -0.67157,1.5 -1.5,1.5 -0.82842,0 -1.5,-0.67157 -1.5,-1.5 0,-0.82843 0.67158,-1.5 1.5,-1.5 0.82843,0 1.5,0.67157 1.5,1.5 z"
       transform="matrix(3,0,0,3,-1411.4286,-1009.3571)" />
  </g>
  <g
     inkscape:groupmode="layer"
     id="layer9"
     inkscape:label="dd"
     transform="translate(78.230484,80.479654)"
     sodipodi:insensitive="true">
    <path
       sodipodi:type="arc"
       id="path3821"
       style="fill:#1700ff;fill-opacity:1;stroke:none"
       sodipodi:cx="365.35715"
       sodipodi:cy="486.46429"
       sodipodi:rx="1.5"
       sodipodi:ry="1.5"
       d="m 366.85715,486.46429 c 0,0.82843 -0.67158,1.5 -1.5,1.5 -0.82843,0 -1.5,-0.67157 -1.5,-1.5 0,-0.82842 0.67157,-1.5 1.5,-1.5 0.82842,0 1.5,0.67158 1.5,1.5 z"
       transform="matrix(3,0,0,3,-730.71429,-972.92859)" />
    <path
       sodipodi:type="arc"
       id="path3825"
       style="fill:#1700ff;fill-opacity:1;stroke:none"
       sodipodi:cx="397.5"
       sodipodi:cy="472.53571"
       sodipodi:rx="1.5"
       sodipodi:ry="1.5"
       d="m 399,472.53571 c 0,0.82842 -0.67157,1.5 -1.5,1.5 -0.82843,0 -1.5,-0.67158 -1.5,-1.5 0,-0.82843 0.67157,-1.5 1.5,-1.5 0.82843,0 1.5,0.67157 1.5,1.5 z"
       transform="matrix(3,0,0,3,-795,-945.07141)" />
    <path
       sodipodi:type="arc"
       id="path3827"
       style="fill:#1700ff;fill-opacity:1;stroke:none"
       sodipodi:cx="401.25"
       sodipodi:cy="539.32141"
       sodipodi:rx="1.5"
       sodipodi:ry="1.5"
       d="m 402.75,539.32141 c 0,0.82843 -0.67157,1.5 -1.5,1.5 -0.82843,0 -1.5,-0.67157 -1.5,-1.5 0,-0.82843 0.67157,-1.5 1.5,-1.5 0.82843,0 1.5,0.67157 1.5,1.5 z"
       transform="matrix(3,0,0,3,-802.85714,-1077.9285)" />
    <path
       sodipodi:type="arc"
       id="path3829"
       style="fill:#1700ff;fill-opacity:1;stroke:none"
       sodipodi:cx="514.92523"
       sodipodi:cy="538.24353"
       sodipodi:rx="1.5"
       sodipodi:ry="1.5"
       d="m 516.42523,538.24353 c 0,0.82843 -0.67157,1.5 -1.5,1.5 -0.82843,0 -1.5,-0.67157 -1.5,-1.5 0,-0.82843 0.67157,-1.5 1.5,-1.5 0.82843,0 1.5,0.67157 1.5,1.5 z"
       transform="matrix(3,0,0,3,-1029.8505,-1076.4871)" />
    <path
       sodipodi:type="arc"
       id="path3831"
       style="fill:#1700ff;fill-opacity:1;stroke:none"
       sodipodi:cx="567.58929"
       sodipodi:cy="700.03571"
       sodipodi:rx="1.5"
       sodipodi:ry="1.5"
       d="m 569.08929,700.03571 c 0,0.82842 -0.67157,1.5 -1.5,1.5 -0.82842,0 -1.5,-0.67158 -1.5,-1.5 0,-0.82843 0.67158,-1.5 1.5,-1.5 0.82843,0 1.5,0.67157 1.5,1.5 z"
       transform="matrix(3,0,0,3,-1135.1786,-1400.0714)" />
  </g>
  <g
     inkscape:groupmode="layer"
     id="layer8"
     inkscape:label="+c"
     transform="translate(78.230484,80.479654)"
     style="display:inline"
     sodipodi:insensitive="true">
    <path
       sodipodi:type="arc"
       id="path3818"
       style="fill:#ff0034;fill-opacity:1;stroke:none"
       sodipodi:cx="202.53558"
       sodipodi:cy="476.24545"
       sodipodi:rx="1.5"
       sodipodi:ry="1.5"
       d="m 204.03558,476.24545 c 0,0.82843 -0.67157,1.5 -1.5,1.5 -0.82842,0 -1.5,-0.67157 -1.5,-1.5 0,-0.82842 0.67158,-1.5 1.5,-1.5 0.82843,0 1.5,0.67158 1.5,1.5 z"
       transform="matrix(3,0,0,3,-405.07117,-952.49091)" />
  </g>
  <g
     inkscape:groupmode="layer"
     id="layer6"
     inkscape:label="dc"
     transform="translate(78.230484,80.479654)"
     style="display:inline"
     sodipodi:insensitive="true">
    <path
       sodipodi:type="arc"
       id="path3810"
       style="fill:#fe00d6;fill-opacity:1;stroke:none"
       sodipodi:cx="234.73421"
       sodipodi:cy="373.84122"
       sodipodi:rx="1.5"
       sodipodi:ry="1.5"
       d="m 236.23421,373.84122 c 0,0.82842 -0.67158,1.5 -1.5,1.5 -0.82843,0 -1.5,-0.67158 -1.5,-1.5 0,-0.82843 0.67157,-1.5 1.5,-1.5 0.82842,0 1.5,0.67157 1.5,1.5 z"
       transform="matrix(3,0,0,3,-469.46841,-747.68243)" />
    <path
       sodipodi:type="arc"
       id="path3812"
       style="fill:#fe00d6;fill-opacity:1;stroke:none"
       sodipodi:cx="181.82745"
       sodipodi:cy="427.8844"
       sodipodi:rx="1.5"
       sodipodi:ry="1.5"
       d="m 183.32745,427.8844 c 0,0.82843 -0.67157,1.5 -1.5,1.5 -0.82842,0 -1.5,-0.67157 -1.5,-1.5 0,-0.82843 0.67158,-1.5 1.5,-1.5 0.82843,0 1.5,0.67157 1.5,1.5 z"
       transform="matrix(3,0,0,3,-363.65491,-855.7688)" />
    <path
       sodipodi:type="arc"
       id="path3814"
       style="fill:#fe00d6;fill-opacity:1;stroke:none"
       sodipodi:cx="242.67857"
       sodipodi:cy="458.07144"
       sodipodi:rx="1.5"
       sodipodi:ry="1.5"
       d="m 244.17857,458.07144 c 0,0.82843 -0.67157,1.5 -1.5,1.5 -0.82842,0 -1.5,-0.67157 -1.5,-1.5 0,-0.82843 0.67158,-1.5 1.5,-1.5 0.82843,0 1.5,0.67157 1.5,1.5 z"
       transform="matrix(3,0,0,3,-485.35715,-916.14288)" />
  </g>
  <g
     inkscape:groupmode="layer"
     id="layer5"
     inkscape:label="cc"
     transform="translate(78.230484,80.479654)"
     sodipodi:insensitive="true">
    <path
       sodipodi:type="arc"
       id="path3801"
       style="fill:#ff0000;fill-opacity:1;stroke:none"
       sodipodi:cx="774.4082"
       sodipodi:cy="320.17688"
       sodipodi:rx="1.5"
       sodipodi:ry="1.5"
       d="m 775.9082,320.17688 c 0,0.82843 -0.67157,1.5 -1.5,1.5 -0.82842,0 -1.5,-0.67157 -1.5,-1.5 0,-0.82843 0.67158,-1.5 1.5,-1.5 0.82843,0 1.5,0.67157 1.5,1.5 z"
       transform="matrix(3,0,0,3,-1548.8164,-640.35376)" />
    <path
       sodipodi:type="arc"
       id="path3803"
       style="fill:#ff0000;fill-opacity:1;stroke:none"
       sodipodi:cx="80.714287"
       sodipodi:cy="450.92856"
       sodipodi:rx="1.5"
       sodipodi:ry="1.5"
       d="m 82.214287,450.92856 c 0,0.82843 -0.671573,1.5 -1.5,1.5 -0.828427,0 -1.5,-0.67157 -1.5,-1.5 0,-0.82843 0.671573,-1.5 1.5,-1.5 0.828427,0 1.5,0.67157 1.5,1.5 z"
       transform="matrix(3,0,0,3,-161.82143,-901.67855)" />
    <path
       sodipodi:type="arc"
       id="path3805"
       style="fill:#ff0000;fill-opacity:1;stroke:none"
       sodipodi:cx="167.32143"
       sodipodi:cy="504.85715"
       sodipodi:rx="1.5"
       sodipodi:ry="1.5"
       d="m 168.82143,504.85715 c 0,0.82842 -0.67158,1.5 -1.5,1.5 -0.82843,0 -1.5,-0.67158 -1.5,-1.5 0,-0.82843 0.67157,-1.5 1.5,-1.5 0.82842,0 1.5,0.67157 1.5,1.5 z"
       transform="matrix(3,0,0,3,-334.64285,-1009.7143)" />
    <path
       sodipodi:type="arc"
       id="path3807"
       style="fill:#ff0000;fill-opacity:1;stroke:none"
       sodipodi:cx="235.71429"
       sodipodi:cy="490.03571"
       sodipodi:rx="1.5"
       sodipodi:ry="1.5"
       d="m 237.21429,490.03571 c 0,0.82842 -0.67157,1.5 -1.5,1.5 -0.82842,0 -1.5,-0.67158 -1.5,-1.5 0,-0.82843 0.67158,-1.5 1.5,-1.5 0.82843,0 1.5,0.67157 1.5,1.5 z"
       transform="matrix(3,0,0,3,-471.42859,-980.07141)" />
  </g>
  <g
     inkscape:groupmode="layer"
     id="layer4"
     inkscape:label="-d"
     transform="translate(78.230484,80.479654)"
     sodipodi:insensitive="true"
     style="display:inline">
    <path
       sodipodi:type="arc"
       id="path3796"
       style="fill:#0031ff;fill-opacity:1;stroke:none"
       sodipodi:cx="430.83005"
       sodipodi:cy="310.07535"
       sodipodi:rx="1.5"
       sodipodi:ry="1.5"
       d="m 432.33005,310.07535 c 0,0.82843 -0.67158,1.5 -1.5,1.5 -0.82843,0 -1.5,-0.67157 -1.5,-1.5 0,-0.82843 0.67157,-1.5 1.5,-1.5 0.82842,0 1.5,0.67157 1.5,1.5 z"
       transform="matrix(3,0,0,3,-861.6601,-620.1507)" />
    <path
       sodipodi:type="arc"
       id="path3798"
       style="fill:#0031ff;fill-opacity:1;stroke:none"
       sodipodi:cx="614.42529"
       sodipodi:cy="531.29877"
       sodipodi:rx="1.5"
       sodipodi:ry="1.5"
       d="m 615.92529,531.29877 c 0,0.82842 -0.67157,1.5 -1.5,1.5 -0.82842,0 -1.5,-0.67158 -1.5,-1.5 0,-0.82843 0.67158,-1.5 1.5,-1.5 0.82843,0 1.5,0.67157 1.5,1.5 z"
       transform="matrix(3,0,0,3,-1228.8506,-1062.5975)" />
  </g>
  <g
     inkscape:groupmode="layer"
     id="layer3"
     inkscape:label="cn"
     style="display:inline"
     transform="translate(78.230484,80.479654)"
     sodipodi:insensitive="true">
    <path
       sodipodi:type="arc"
       id="path3791"
       style="fill:#a8a50f;fill-opacity:1;stroke:none"
       sodipodi:cx="465.17526"
       sodipodi:cy="262.97699"
       sodipodi:rx="1.5"
       sodipodi:ry="1.5"
       d="m 466.67526,262.97699 c 0,0.82843 -0.67157,1.5 -1.5,1.5 -0.82842,0 -1.5,-0.67157 -1.5,-1.5 0,-0.82843 0.67158,-1.5 1.5,-1.5 0.82843,0 1.5,0.67157 1.5,1.5 z"
       transform="matrix(3,0,0,3,-930.35052,-525.95398)" />
    <path
       sodipodi:type="arc"
       id="path3793"
       style="fill:#a8a50f;fill-opacity:1;stroke:none"
       sodipodi:cx="254.82143"
       sodipodi:cy="514.5"
       sodipodi:rx="1.5"
       sodipodi:ry="1.5"
       d="m 256.32143,514.5 c 0,0.82843 -0.67158,1.5 -1.5,1.5 -0.82843,0 -1.5,-0.67157 -1.5,-1.5 0,-0.82843 0.67157,-1.5 1.5,-1.5 0.82842,0 1.5,0.67157 1.5,1.5 z"
       transform="matrix(3,0,0,3,-508.75,-1025.6071)" />
  </g>
  <g
     inkscape:groupmode="layer"
     id="layer2"
     inkscape:label="cd"
     style="display:inline"
     transform="translate(78.230484,80.479654)"
     sodipodi:insensitive="true">
    <path
       sodipodi:type="arc"
       id="path3774"
       style="fill:#139600;fill-opacity:1;stroke:none"
       sodipodi:cx="620.35712"
       sodipodi:cy="125.57143"
       sodipodi:rx="1.5"
       sodipodi:ry="1.5"
       d="m 621.85712,125.57143 c 0,0.82842 -0.67158,1.5 -1.5,1.5 -0.82843,0 -1.5,-0.67158 -1.5,-1.5 0,-0.82843 0.67157,-1.5 1.5,-1.5 0.82842,0 1.5,0.67157 1.5,1.5 z"
       transform="matrix(3,0,0,3,-1240.7142,-251.14285)" />
    <path
       sodipodi:type="arc"
       id="path3776"
       style="fill:#139600;fill-opacity:1;stroke:none"
       sodipodi:cx="517.85712"
       sodipodi:cy="406.28571"
       sodipodi:rx="1.5"
       sodipodi:ry="1.5"
       d="m 519.35712,406.28571 c 0,0.82842 -0.67158,1.5 -1.5,1.5 -0.82843,0 -1.5,-0.67158 -1.5,-1.5 0,-0.82843 0.67157,-1.5 1.5,-1.5 0.82842,0 1.5,0.67157 1.5,1.5 z"
       transform="matrix(3,0,0,3,-1035.7142,-812.57141)" />
    <path
       sodipodi:type="arc"
       id="path3784"
       style="fill:#139600;fill-opacity:1;stroke:none"
       sodipodi:cx="318.19806"
       sodipodi:cy="497.58493"
       sodipodi:rx="1.5"
       sodipodi:ry="1.5"
       d="m 319.69806,497.58493 c 0,0.82843 -0.67157,1.5 -1.5,1.5 -0.82843,0 -1.5,-0.67157 -1.5,-1.5 0,-0.82843 0.67157,-1.5 1.5,-1.5 0.82843,0 1.5,0.67157 1.5,1.5 z"
       transform="matrix(3,0,0,3,-636.39612,-995.16986)" />
    <path
       sodipodi:type="arc"
       id="path3786"
       style="fill:#139600;fill-opacity:1;stroke:none"
       sodipodi:cx="362.5"
       sodipodi:cy="535.57141"
       sodipodi:rx="1.5"
       sodipodi:ry="1.5"
       d="m 364,535.57141 c 0,0.82843 -0.67157,1.5 -1.5,1.5 -0.82843,0 -1.5,-0.67157 -1.5,-1.5 0,-0.82843 0.67157,-1.5 1.5,-1.5 0.82843,0 1.5,0.67157 1.5,1.5 z"
       transform="matrix(3,0,0,3,-725,-1071.1428)" />
    <path
       sodipodi:type="arc"
       id="path3788"
       style="fill:#139600;fill-opacity:1;stroke:none"
       sodipodi:cx="254.28571"
       sodipodi:cy="622.35712"
       sodipodi:rx="1.5"
       sodipodi:ry="1.5"
       d="m 255.78571,622.35712 c 0,0.82842 -0.67158,1.5 -1.5,1.5 -0.82843,0 -1.5,-0.67158 -1.5,-1.5 0,-0.82843 0.67157,-1.5 1.5,-1.5 0.82842,0 1.5,0.67157 1.5,1.5 z"
       transform="matrix(3,0,0,3,-508.57141,-1244.7142)" />
  </g>
  <g
     inkscape:groupmode="layer"
     id="layer7"
     inkscape:label="planes1"
     style="display:inline">
    <path
       style="fill:none;stroke:#000000;stroke-width:1px;stroke-linecap:butt;stroke-linejoin:miter;stroke-opacity:0.49275363"
       d="m 142.56989,489.09455 c 35.34189,12.04259 41.44173,15.93897 73.31026,25.86587 31.86848,9.92689 54.42702,14.6582 84.11569,22.56563 29.68865,7.90742 64.36017,14.552 92.44001,19.00924 28.07985,4.45725 60.565,9.56624 96.37206,13.83332 35.80709,4.26686 57.83366,7.52578 98.61055,11.49781 40.7769,3.97202 61.71356,6.22097 98.64314,9.07836 36.92958,2.85738 55.66684,4.53851 93.73848,4.53452 38.07164,-0.004 47.44679,0.35269 86.09595,-1.56588 38.64918,-1.91855 42.52909,-3.22336 78.45345,-7.66627"
       id="path3330"
       inkscape:connector-curvature="0"
       inkscape:transform-center-y="4.5108514"
       inkscape:transform-center-x="-0.0015748167" />
    <path
       style="fill:none;stroke:#000000;stroke-width:1px;stroke-linecap:butt;stroke-linejoin:miter;stroke-opacity:1;display:inline"
       d="m 142.56788,489.86023 c 35.15082,13.75537 41.17184,18.35759 72.89159,29.61856 31.71973,11.26099 54.23084,16.41864 83.81471,25.26639 29.58387,8.84775 64.19834,16.00603 92.25527,20.67078 28.05694,4.66477 60.5168,10.00309 96.33039,14.21509 35.81358,4.21202 57.82822,7.57981 98.63492,11.28889 40.8067,3.70905 61.7534,5.87027 98.72862,8.32253 36.97524,2.45227 55.72985,3.98004 93.92293,2.89277 38.1931,-1.08728 47.58914,-0.91666 86.40989,-4.36696 38.82078,-3.45032 42.74596,-5.15987 78.89688,-11.62673"
       id="path3330-2"
       inkscape:connector-curvature="0"
       inkscape:transform-center-y="8.0312674"
       inkscape:transform-center-x="-0.0045343726" />
    <path
       inkscape:transform-center-y="11.141395"
       inkscape:connector-curvature="0"
       id="path3166"
       d="m 142.57415,489.74298 c 34.96492,15.26609 40.91032,20.48276 72.48473,32.92469 31.5744,12.4419 54.03762,17.98887 83.51818,27.67597 29.48058,9.68713 64.03643,17.32172 92.06803,22.19245 28.03159,4.87075 60.46325,10.43812 96.27845,14.63713 35.81518,4.19904 57.81562,7.68217 98.6454,11.20384 40.82976,3.52163 61.78327,5.62739 98.79711,7.76598 37.01384,2.13858 55.7825,3.55222 94.086,1.56768 38.30353,-1.98455 47.71819,-1.96528 86.6969,-6.69897 38.97871,-4.73371 42.94638,-6.78848 79.30779,-14.96568"
       style="fill:none;stroke:#000000;stroke-width:1px;stroke-linecap:butt;stroke-linejoin:miter;stroke-opacity:0.49275363;display:inline"
       inkscape:transform-center-x="-0.007335" />
    <path
       inkscape:transform-center-x="0.00376"
       inkscape:transform-center-y="13.981542"
       inkscape:connector-curvature="0"
       id="path3954"
       d="m 140.45217,513.07231 c 35.88587,11.70447 42.16239,15.95165 74.47899,25.36384 32.31658,9.4122 55.08776,13.2625 85.13281,20.38871 30.04506,7.12622 65.01486,12.27553 93.29418,15.3138 28.27934,3.03829 60.99311,6.49499 96.99006,8.63376 35.99693,2.13877 58.1692,4.23085 99.12192,5.57946 40.95272,1.34858 61.98922,2.2977 99.04433,2.61264 37.05513,0.31495 55.86664,0.75815 93.93338,-2.53082 38.06675,-3.28896 47.45699,-3.66072 86.01402,-9.34499 38.55705,-5.68429 42.37706,-7.61745 78.09467,-16.15922"
       style="fill:none;stroke:#000000;stroke-width:1px;stroke-linecap:butt;stroke-linejoin:miter;stroke-opacity:0.50724637;display:inline" />
    <path
       inkscape:transform-center-x="-0.01117"
       inkscape:transform-center-y="4.3686678"
       inkscape:connector-curvature="0"
       id="path3956"
       d="m 145.23279,471.36522 c 34.4769,15.36666 40.27859,20.24247 71.44346,32.9587 31.16486,12.71624 53.41329,18.90969 82.55621,29.11647 29.14291,10.20678 63.3892,18.9586 91.20032,24.91622 27.81111,5.95765 59.98928,12.7918 95.56969,18.65596 35.58041,5.86418 57.41568,10.24673 98.00712,15.83949 40.59146,5.59273 61.41575,8.7206 98.23796,12.88064 36.82222,4.16007 55.48608,6.55376 93.68857,7.23439 38.2025,0.68063 47.5806,1.28573 86.5194,-0.36511 38.93882,-1.65083 42.93888,-3.17698 79.35025,-7.96463"
       style="fill:none;stroke:#000000;stroke-width:1px;stroke-linecap:butt;stroke-linejoin:miter;stroke-opacity:0.5024155;display:inline" />
    <path
       style="fill:none;stroke:#000000;stroke-width:1px;stroke-linecap:butt;stroke-linejoin:miter;stroke-opacity:1"
       d="m 610.97879,140.94147 c -19.85094,33.86098 -24.35237,45.43085 -34.80847,70.30644 -10.4561,24.8756 -19.08189,46.96283 -30.48114,82.42664 -11.39926,35.46381 -17.13432,54.78631 -26.05932,90.30524 -8.925,35.51894 -13.73352,60.87398 -20.88331,96.07881 -7.1498,35.20484 -13.16833,67.25211 -17.773,99.33086 -4.60467,32.07877 -8.25129,68.77621 -11.03351,98.42008 -2.78222,29.64388 -4.68515,67.44109 -5.59768,92.52928 -0.91253,25.08818 -0.0586,66.12957 1.22841,87.73035 1.28701,21.60079 3.63354,59.13902 10.26978,78.73711"
       id="path3167"
       inkscape:connector-curvature="0" />
    <path
       inkscape:connector-curvature="0"
       id="path3169"
       d="m 623.89519,143.60175 c -20.94335,33.1964 -25.81926,44.61351 -37.08008,69.13531 -11.26083,24.52182 -20.60148,46.31636 -33.14985,81.39004 -12.54837,35.07369 -18.90978,54.19913 -28.987,89.4085 -10.07721,35.20937 -15.70908,60.39433 -24.0018,95.34759 -8.29273,34.95327 -15.35194,66.78749 -20.99906,98.69923 -5.64713,31.91176 -10.48717,68.47095 -14.2335,98.00846 -3.74633,29.53753 -6.87941,67.25269 -8.60866,92.29784 -1.72924,25.04516 -2.2126,66.09258 -1.62988,87.72382 0.58273,21.63124 1.70528,59.22599 7.69963,79.02984"
       style="fill:none;stroke:#000000;stroke-width:1px;stroke-linecap:butt;stroke-linejoin:miter;stroke-opacity:0.4879227" />
    <path
       inkscape:connector-curvature="0"
       id="path3171"
       d="m 596.57181,138.54812 c -18.61616,34.55523 -22.69717,46.28 -32.24884,71.51669 -9.55167,25.2367 -17.37484,47.6208 -27.48698,83.47285 -10.11215,35.85205 -15.14624,55.36891 -22.78375,91.18676 -7.63751,35.81786 -11.52799,61.3299 -17.40278,96.7698 -5.8748,35.43991 -10.73301,67.68348 -14.17714,99.9075 -3.44413,32.22403 -5.76418,69.02916 -7.47491,98.75412 -1.71073,29.72496 -2.24853,67.56622 -2.25518,92.671 -0.007,25.10477 2.32768,66.08862 4.3933,87.62889 2.06562,21.54028 5.76516,58.9694 13.10426,78.31526"
       style="fill:none;stroke:#000000;stroke-width:1px;stroke-linecap:butt;stroke-linejoin:miter;stroke-opacity:0.4879227" />
    <path
       inkscape:connector-curvature="0"
       id="path3953"
       d="m 611.5111,141.04591 c -17.64784,34.21169 -21.76136,45.84322 -31.25902,70.8712 -9.49766,25.02801 -17.37772,47.23377 -27.97151,82.82539 -10.5938,35.59163 -15.9661,54.97164 -24.48293,90.55504 -8.51682,35.58341 -13.28385,60.94463 -20.30035,96.1701 -7.01651,35.22549 -12.99206,67.27905 -17.78078,99.3279 -4.78871,32.04886 -8.90512,68.67076 -12.09299,98.24943 -3.18785,29.57869 -5.87099,67.25083 -7.35745,92.24707 -1.48644,24.99623 -1.9467,65.82734 -1.48533,87.2961 0.46138,21.46876 1.35554,58.77474 6.36813,78.11359"
       style="fill:none;stroke:#000000;stroke-width:0.99999994px;stroke-linecap:butt;stroke-linejoin:miter;stroke-opacity:0.51690823"
       inkscape:transform-center-x="3.2682215"
       inkscape:transform-center-y="-5.5e-05" />
    <path
       inkscape:transform-center-y="6e-05"
       inkscape:transform-center-x="8.6509245"
       style="fill:none;stroke:#000000;stroke-width:0.99999994px;stroke-linecap:butt;stroke-linejoin:miter;stroke-opacity:0.51690823"
       d="m 611.99496,141.1366 c -22.15238,33.42479 -27.08353,44.91351 -38.58513,69.59146 -11.50159,24.67798 -20.95279,46.60932 -33.29422,81.89573 -12.34142,35.28641 -18.51544,54.52643 -27.99452,89.94183 -9.47906,35.41542 -14.43881,60.74307 -21.87257,95.89576 -7.43377,35.15272 -13.63419,67.1671 -18.19898,99.2552 -4.56481,32.08809 -7.91237,68.84447 -10.4275,98.54079 -2.51508,29.69634 -3.82032,67.60936 -4.28133,92.78485 -0.46097,25.1755 1.49846,66.42952 3.49825,88.16715 1.99982,21.73764 5.60224,59.51693 13.74011,79.4019"
       id="path3955"
       inkscape:connector-curvature="0" />
    <path
       transform="matrix(1.402722,0,0,1.4148172,-222.26774,-218.55263)"
       d="m 831.25,536.28174 a 285.15625,284.375 0 1 1 -570.3125,0 285.15625,284.375 0 1 1 570.3125,0 z"
       sodipodi:ry="284.375"
       sodipodi:rx="285.15625"
       sodipodi:cy="536.28174"
       sodipodi:cx="546.09375"
       id="path3162"
       style="fill:none;stroke:#000000;stroke-width:0.07098457;stroke-linejoin:round;stroke-miterlimit:4;stroke-opacity:0.49758456;stroke-dasharray:none;stroke-dashoffset:0;display:inline"
       sodipodi:type="arc" />
    <path
       style="fill:#d9b505;fill-opacity:0.38647341;stroke:none"
       d="m 661.22998,587.28253 c -75.09046,-5.51112 -165.97278,-14.87424 -168.04526,-16.98549 -2.32152,-2.36494 28.23902,-154.99966 41.42975,-206.92107 3.84093,-15.11869 4.03768,-15.50402 7.94294,-15.55635 5.0288,-0.0673 7.77969,-3.82024 5.1356,-7.00618 -1.02241,-1.23192 -2.99217,-2.23986 -4.37724,-2.23986 -2.28221,0 -2.07419,-1.47759 2.21878,-15.76011 14.85085,-49.40814 52.90203,-136.92079 73.19102,-168.3296 l 5.18071,-8.02012 18.05916,4.72036 c 113.31803,29.61939 207.65636,106.32864 259.15192,210.72399 29.58983,59.98653 43.13975,122.90404 41.29253,191.73715 l -0.24968,9.3036 -22.27386,5.13347 c -31.8867,7.34896 -80.49179,15.20472 -117.93375,18.0859 -11.63397,0.89524 -12.12073,1.7235 -13.0303,-1.1423 -1.2452,-3.9233 -7.33184,-5.65154 -9.39665,-1.7934 -0.83255,1.55564 0.20667,4.47058 0.81739,4.56795 0.61073,0.0973 -5.46322,0.43202 -9.00349,0.75695 -41.38196,3.79812 -69.23839,1.72477 -110.10957,-1.27489 z m -60.18055,-99.63318 c 0.54314,-3.80141 -3.00316,-6.73365 -6.71789,-5.55463 -2.85004,0.90455 -4.04509,6.1795 -1.88856,8.33603 2.14187,2.14187 8.18193,0.18988 8.60645,-2.7814 z M 857.3074,400.13741 c 0,-2.17491 -1.03839,-3.72005 -2.8963,-4.30972 -5.75486,-1.82653 -9.77008,6.11074 -4.56484,9.02374 3.45967,1.93613 7.46114,-0.59202 7.46114,-4.71402 z M 702.45101,206.34461 c 0,-3.54334 -0.62101,-4.31447 -3.76769,-4.67842 -2.80819,-0.32479 -4.00843,0.32275 -4.71304,2.54274 -1.2057,3.79882 1.68128,7.34981 5.52855,6.80012 2.24366,-0.32057 2.95218,-1.44003 2.95218,-4.66444 z"
       id="path3168"
       inkscape:connector-curvature="0"
       sodipodi:nodetypes="ssscsssscssscsssscsscsscsssssssss" />
    <path
       style="fill:#d9b505;fill-opacity:0.38647341;stroke:none"
       d="M 446.05409,929.57866 C 393.56792,916.10775 343.80369,891.58397 298.97588,857.09859 281.63195,843.75616 247.09368,809.7758 233.35337,792.53613 188.54449,736.31536 160.68496,672.40094 148.90126,598.78887 c -3.28696,-20.53347 -5.53545,-82.02438 -2.99931,-82.02438 0.8139,0 12.20093,3.82701 25.30452,8.50448 26.74286,9.54614 59.61628,19.22726 83.92879,24.71677 19.71784,4.45207 21.63869,5.00843 20.66243,5.98469 -0.42016,0.42016 -0.12753,1.95304 0.65029,3.40641 1.73293,3.23801 5.97251,3.42895 8.50056,0.38285 2.16346,-2.60682 0.0953,-2.88208 38.06897,5.06701 15.16744,3.17503 36.42065,7.33365 47.22936,9.24139 15.63965,2.7604 20.05949,4.0501 21.64694,6.31653 2.36235,3.3727 6.85605,3.73177 8.56161,0.6841 1.08486,-1.93852 2.68378,-1.94259 15.35703,-0.0391 7.78035,1.16859 23.01787,3.15212 33.86112,4.40785 10.84327,1.25572 19.7959,2.38701 19.89472,2.51397 0.0989,0.12695 -0.65618,6.60891 -1.67779,14.40434 -7.40562,56.50854 -13.36783,159.76093 -13.35002,231.19253 0.0113,43.60048 1.70879,75.06663 4.86243,90.11137 2.18108,10.40504 2.89563,10.0882 -13.34882,5.91897 z M 336.45254,702.73357 c 0,-3.22441 -0.70852,-4.34387 -2.95218,-4.66444 -3.84727,-0.54968 -6.73425,3.0013 -5.52855,6.80011 0.70461,2.21999 1.90485,2.86755 4.71304,2.54275 3.14668,-0.36395 3.76769,-1.13508 3.76769,-4.67842 z m 108.13095,-83.37066 c 2.94491,-3.54839 1.19503,-7.13901 -3.47915,-7.13901 -4.31673,0 -6.06356,2.83579 -4.40663,7.15368 1.01102,2.63469 5.69425,2.62597 7.88578,-0.0147 l 0,0 z M 337.86675,598.08177 c 0,-3.53111 -0.5671,-4.24264 -3.38139,-4.24264 -3.95417,0 -6.65753,3.53231 -5.33699,6.97355 0.62925,1.63981 2.16766,2.26522 4.82125,1.95999 3.28772,-0.37817 3.89713,-1.1117 3.89713,-4.6909 z m -88.28996,-10.01804 c 2.51227,-3.02711 -0.0148,-6.95253 -4.47579,-6.95253 -3.46257,0 -5.07116,3.22807 -3.56476,7.15368 1.04122,2.71337 5.71883,2.59635 8.04055,-0.20115 l 0,0 z m 67.50102,-13.59933 c 2.36157,-2.36156 2.11756,-6.09291 -0.5428,-8.30082 -4.40874,-3.65893 -9.93342,3.43278 -6.18904,7.94449 2.07242,2.49712 4.46445,2.62373 6.73184,0.35633 z M 162.50427,531.61373 c 0,-3.54334 -0.62101,-4.31447 -3.76769,-4.67842 -2.80819,-0.32479 -4.00843,0.32275 -4.71303,2.54274 -1.2057,3.79882 1.68127,7.34981 5.52854,6.80012 2.24366,-0.32057 2.95218,-1.44003 2.95218,-4.66444 z"
       id="path3950"
       inkscape:connector-curvature="0" />
    <path
       style="fill:#a906d3;fill-opacity:0.31400966;stroke:none"
       d="m 460.32519,567.50863 c -5.77817,-0.66992 -11.53689,-2.1734 -12.83928,-3.35205 -2.76042,-2.49815 -4.15158,-3.53211 -6.2591,-1.42459 -2.90622,2.90622 -34.04942,-4.56427 -80.8303,-12.1485 -33.12234,-5.36988 -34.31699,-9.53007 -34.81554,-13.03395 -0.53925,-3.78988 -7.74432,-5.28625 -9.05147,-1.87983 -0.66932,1.7442 -7.55982,-0.15872 -38.52929,-10.64056 -44.23789,-14.97263 -66.41364,-23.78789 -101.78449,-40.46122 l -25.88652,-12.20254 0.92707,-5.73117 c 0.50989,-3.15214 3.35147,-15.30897 6.31461,-27.01517 18.2613,-72.14315 58.76413,-140.87486 113.23595,-192.15698 60.21251,-56.68664 132.85307,-91.7311 217.67367,-105.01373 12.73174,-1.99375 24.70887,-2.54952 55.15433,-2.55929 21.38998,-0.007 41.26043,0.49048 44.15655,1.10521 l 6.73053,0.0435 -7.52441,14.45223 c -6.49765,12.99612 -12.57826,26.69213 -17.30369,38.83384 -14.65263,37.42027 -28.46145,77.75819 -38.08232,113.8442 -15.2171,57.07638 -20.80035,74.99865 -24.15762,77.54615 -3.74454,2.84134 -4.54432,7.66996 -1.46606,8.85119 1.60102,0.61437 1.34761,3.07967 -1.41281,13.74419 -4.17643,16.13512 -20.35991,92.39599 -25.2663,119.06157 -2.00363,10.88944 -4.26712,20.01355 -5.02996,20.27579 -0.76286,0.26225 -2.06683,1.74708 -2.89772,3.29963 -1.142,2.13382 -1.01228,3.39818 0.53139,5.18005 1.99318,2.30071 1.81967,13.19012 -0.20365,12.78035 -0.49826,-0.10084 -5.62086,-0.73013 -11.38357,-1.39828 z M 263.3377,512.239 c 4.23434,-4.23434 -0.57333,-10.91715 -5.76408,-8.01225 -4.09029,2.28904 -2.17097,9.70931 2.51139,9.70931 0.8556,0 2.31931,-0.76368 3.25269,-1.69706 z m 54.3802,-56.08484 c 0.9348,-3.57468 -1.3516,-7.27192 -4.497,-7.27192 -3.60035,0 -6.17088,3.54776 -5.07417,7.00319 1.22576,3.86201 8.57753,4.06843 9.57117,0.26873 z"
       id="path3952"
       inkscape:connector-curvature="0"
       sodipodi:nodetypes="cssssssscsssssscccsssssssscccssssssss" />
    <path
       style="fill:#a906d3;fill-opacity:0.31400966;stroke:none"
       d="m 523.09602,940.91412 c -10.90743,-0.51851 -22.49127,-1.39208 -25.74186,-1.94127 -5.6953,-0.96221 -5.99016,-1.27364 -8.11012,-8.56607 -4.55995,-15.68567 -8.71388,-44.9051 -12.16133,-85.54475 -2.47729,-29.20311 -3.36042,-110.07309 -1.43727,-131.61319 4.20167,-47.06025 12.57085,-123.35136 14.21896,-124.99946 0.38912,-0.38913 12.03702,1.38829 24.69175,3.07268 28.93789,3.85173 69.20959,7.42159 100.49646,10.3294 13.19122,1.226 35.4632,2.56533 49.16163,3.80886 l 24.53406,2.22717 -0.57185,3.89624 c -0.44351,3.0219 0.10946,4.11249 2.46445,4.85992 3.67702,1.16704 7.14321,-1.38562 7.14321,-5.26059 0,-2.49947 0.18702,-3.30901 5.52212,-2.5761 26.64818,3.6608 46.83497,5.02651 111.15049,4.96653 57.74596,-0.0539 72.47875,-0.48007 88.38835,-2.55705 34.26942,-4.47385 33.94113,-4.45803 33.94113,-1.63554 0,5.83846 -7.83909,36.91234 -14.1768,56.19635 -19.45703,59.20265 -49.44668,108.95849 -92.59633,153.62655 -21.79782,22.5649 -40.104,37.88656 -66.10397,55.32685 -58.71425,39.3844 -129.61101,63.28989 -195.52554,65.92875 -9.3338,0.37367 -18.87975,0.84097 -21.2132,1.03845 -2.33345,0.19746 -13.1669,-0.0652 -24.07434,-0.58373 z M 649.79923,783.2252 c 2.51227,-3.02711 -0.0148,-6.95253 -4.47579,-6.95253 -3.46257,0 -5.07115,3.22807 -3.56476,7.15368 1.04121,2.71338 5.71882,2.59635 8.04055,-0.20115 z M 597.32011,621.51874 c 2.54569,-4.75665 -1.33529,-9.59358 -6.19978,-7.72689 -4.90862,1.88361 -3.2592,10.45287 2.01197,10.45287 1.5009,0 3.38542,-1.22669 4.18781,-2.72598 z"
       id="path3957"
       inkscape:connector-curvature="0"
       sodipodi:nodetypes="ssssscssscsssssssssssssssssssss" />
    <text
       xml:space="preserve"
       style="font-size:14px;font-style:normal;font-variant:normal;font-weight:normal;font-stretch:normal;line-height:125%;letter-spacing:0px;word-spacing:0px;fill:#000000;fill-opacity:1;stroke:none;font-family:Serif;-inkscape-font-specification:Sans"
       x="802"
       y="606.78174"
       id="text4008"
       sodipodi:linespacing="125%"><tspan
         sodipodi:role="line"
         id="tspan4010"
         x="802"
         y="606.78174">FP2</tspan></text>
  </g>
  <g
     inkscape:groupmode="layer"
     id="layer17"
     inkscape:label="vectors1"
     style="display:none">
    <path
       sodipodi:type="arc"
       id="path3157"
       style="fill:#000000;stroke:none;display:inline"
       sodipodi:cx="577"
       sodipodi:cy="180.09424"
       sodipodi:rx="1.5"
       sodipodi:ry="1.5"
       d="m 578.5,180.09424 a 1.5,1.5 0 1 1 -3,0 1.5,1.5 0 1 1 3,0 z"
       transform="matrix(0.99984633,0.01753057,-0.01753057,0.99984633,10.193366,-8.3614295)" />
    <path
       sodipodi:type="arc"
       id="path3159"
       style="fill:#000000;stroke:none;display:inline"
       sodipodi:cx="577.75"
       sodipodi:cy="170.84424"
       sodipodi:rx="1.5"
       sodipodi:ry="1.5"
       d="m 579.25,170.84424 a 1.5,1.5 0 1 1 -3,0 1.5,1.5 0 1 1 3,0 z"
       transform="matrix(0.99984633,0.01753057,-0.01753057,0.99984633,10.193366,-8.3614295)" />
    <path
       sodipodi:type="arc"
       id="path3161"
       style="fill:#000000;stroke:none;display:inline"
       sodipodi:cx="576"
       sodipodi:cy="190.34424"
       sodipodi:rx="1.5"
       sodipodi:ry="1.5"
       d="m 577.5,190.34424 a 1.5,1.5 0 1 1 -3,0 1.5,1.5 0 1 1 3,0 z"
       transform="matrix(0.99984633,0.01753057,-0.01753057,0.99984633,10.193366,-8.3614295)" />
    <path
       sodipodi:type="arc"
       id="path3163"
       style="fill:#000000;stroke:none;display:inline"
       sodipodi:cx="564"
       sodipodi:cy="180.59424"
       sodipodi:rx="1.5"
       sodipodi:ry="1.5"
       d="m 565.5,180.59424 a 1.5,1.5 0 1 1 -3,0 1.5,1.5 0 1 1 3,0 z"
       transform="matrix(0.99984633,0.01753057,-0.01753057,0.99984633,10.193366,-8.3614295)" />
    <path
       sodipodi:type="arc"
       id="path3165"
       style="fill:#000000;stroke:none;display:inline"
       sodipodi:cx="594.5"
       sodipodi:cy="183.09424"
       sodipodi:rx="1.5"
       sodipodi:ry="1.5"
       d="m 596,183.09424 a 1.5,1.5 0 1 1 -3,0 1.5,1.5 0 1 1 3,0 z"
       transform="matrix(0.99984633,0.01753057,-0.01753057,0.99984633,10.193366,-8.3614295)" />
    <path
       sodipodi:type="arc"
       id="path4016"
       style="fill:#000000;stroke:none"
       sodipodi:cx="896.58929"
       sodipodi:cy="598.65344"
       sodipodi:rx="1.5"
       sodipodi:ry="1.5"
       d="m 898.08929,598.65344 a 1.5,1.5 0 1 1 -3,0 1.5,1.5 0 1 1 3,0 z" />
    <path
       sodipodi:type="arc"
       id="path4018"
       style="fill:#000000;stroke:none"
       sodipodi:cx="888.02667"
       sodipodi:cy="597.54865"
       sodipodi:rx="1.5"
       sodipodi:ry="1.5"
       d="m 889.52667,597.54865 a 1.5,1.5 0 1 1 -3,0 1.5,1.5 0 1 1 3,0 z" />
    <path
       sodipodi:type="arc"
       id="path4020"
       style="fill:#000000;stroke:none"
       sodipodi:cx="904.87573"
       sodipodi:cy="600.86316"
       sodipodi:rx="1.5"
       sodipodi:ry="1.5"
       d="m 906.37573,600.86316 a 1.5,1.5 0 1 1 -3,0 1.5,1.5 0 1 1 3,0 z" />
    <path
       sodipodi:type="arc"
       id="path4022"
       style="fill:#000000;stroke:none"
       sodipodi:cx="894.93201"
       sodipodi:cy="609.1496"
       sodipodi:rx="1.5"
       sodipodi:ry="1.5"
       d="m 896.43201,609.1496 a 1.5,1.5 0 1 1 -3,0 1.5,1.5 0 1 1 3,0 z" />
    <path
       sodipodi:type="arc"
       id="path4024"
       style="fill:#000000;stroke:none"
       sodipodi:cx="899.35144"
       sodipodi:cy="584.29034"
       sodipodi:rx="1.5"
       sodipodi:ry="1.5"
       d="m 900.85144,584.29034 a 1.5,1.5 0 1 1 -3,0 1.5,1.5 0 1 1 3,0 z" />
    <text
       xml:space="preserve"
       style="font-size:14px;font-style:normal;font-variant:normal;font-weight:normal;font-stretch:normal;line-height:125%;letter-spacing:0px;word-spacing:0px;fill:#000000;fill-opacity:1;stroke:none;font-family:Serif;-inkscape-font-specification:Sans"
       x="896.86554"
       y="619.36951"
       id="text4026"
       sodipodi:linespacing="125%"><tspan
         sodipodi:role="line"
         id="tspan4028"
         x="896.86554"
         y="619.36951">P1</tspan></text>
    <path
       style="fill:none;stroke:#000000;stroke-width:1px;stroke-linecap:butt;stroke-linejoin:miter;stroke-opacity:1"
       d="m 307.14951,211.40202 c 56.9,-22.64951 83.4165,-33.14563 125.40097,-38.11747 41.98446,-4.97185 93.36019,-4.41942 128.1631,2.76213 34.80291,7.18156 76.78738,18.2301 117.66699,42.5369 40.87961,24.30679 75.1301,47.50873 99.43689,74.57767 24.3068,27.06893 51.92816,58.55728 72.36796,100.54174 20.43981,41.98447 33.69806,77.89223 39.77476,116.56213 6.0767,38.66991 10.49612,80.65437 3.31456,124.84855 -7.18155,44.19417 -16.57281,79.54951 -36.46019,122.63883 -19.88738,43.08932 -37.56505,59.66213 -75.68252,107.17087"
       id="path4030"
       inkscape:connector-curvature="0" />
    <path
       style="fill:none;stroke:#000000;stroke-width:1px;stroke-linecap:butt;stroke-linejoin:miter;stroke-opacity:1;marker-end:url(#Arrow1Lend)"
       d="M 543.58834,538.43891 813.72279,335.57171"
       id="path4044"
       inkscape:connector-curvature="0" />
    <path
       inkscape:connector-curvature="0"
       id="path4230"
       d="M 543.58831,538.43889 863.99362,297.77281"
       style="fill:none;stroke:#000000;stroke-width:1;stroke-linecap:butt;stroke-linejoin:miter;stroke-miterlimit:4;stroke-opacity:1;stroke-dasharray:1, 4;stroke-dashoffset:0;marker-end:url(#Arrow1Lend)" />
    <text
       xml:space="preserve"
       style="font-size:14px;font-style:normal;font-variant:normal;font-weight:normal;font-stretch:normal;line-height:125%;letter-spacing:0px;word-spacing:0px;fill:#000000;fill-opacity:1;stroke:none;font-family:Serif;-inkscape-font-specification:Sans"
       x="805.43884"
       y="321.04861"
       id="text4232"
       sodipodi:linespacing="125%"><tspan
         sodipodi:role="line"
         id="tspan4234"
         x="805.43884"
         y="321.04861">T</tspan></text>
    <path
       style="fill:none;stroke:#000000;stroke-width:1px;stroke-linecap:butt;stroke-linejoin:miter;stroke-opacity:1;marker-end:url(#Arrow1Lend)"
       d="m 543.58834,538.43891 241.9631,320.68398"
       id="path4236"
       inkscape:connector-curvature="0" />
    <text
       xml:space="preserve"
       style="font-size:14px;font-style:normal;font-variant:normal;font-weight:normal;font-stretch:normal;line-height:125%;letter-spacing:0px;word-spacing:0px;fill:#000000;fill-opacity:1;stroke:none;font-family:Serif;-inkscape-font-specification:Sans"
       x="785.64844"
       y="847.11768"
       id="text4422"
       sodipodi:linespacing="125%"><tspan
         sodipodi:role="line"
         id="tspan4424"
         x="785.64844"
         y="847.11768">P</tspan></text>
    <text
       xml:space="preserve"
       style="font-size:14px;font-style:normal;font-variant:normal;font-weight:normal;font-stretch:normal;line-height:125%;letter-spacing:0px;word-spacing:0px;fill:#000000;fill-opacity:1;stroke:none;display:inline;font-family:Serif;-inkscape-font-specification:Sans"
       x="544.53125"
       y="271.43799"
       id="text4004"
       sodipodi:linespacing="125%"><tspan
         sodipodi:role="line"
         id="tspan4006"
         x="544.53125"
         y="271.43799">FP1</tspan></text>
    <text
       xml:space="preserve"
       style="font-size:14px;font-style:normal;font-variant:normal;font-weight:normal;font-stretch:normal;line-height:125%;letter-spacing:0px;word-spacing:0px;fill:#000000;fill-opacity:1;stroke:none;display:inline;font-family:Serif;-inkscape-font-specification:Sans"
       x="547.64465"
       y="172.52242"
       id="text4012"
       sodipodi:linespacing="125%"><tspan
         sodipodi:role="line"
         id="tspan4014"
         x="547.64465"
         y="172.52242">P2</tspan></text>
    <path
       inkscape:connector-curvature="0"
       id="path4432"
       d="M 543.58836,538.43893 588.81224,138.33604"
       style="fill:none;stroke:#000000;stroke-width:1.00000012px;stroke-linecap:butt;stroke-linejoin:miter;stroke-opacity:0.46859903"
       inkscape:transform-center-x="-23.11194"
       inkscape:transform-center-y="-200.55145" />
    <path
       style="fill:none;stroke:#000000;stroke-width:1px;stroke-linecap:butt;stroke-linejoin:miter;stroke-opacity:1;marker-end:url(#Arrow1Lend)"
       d="M 543.58834,538.43891 583.97384,180.3205"
       id="path4430"
       inkscape:connector-curvature="0" />
    <path
       inkscape:transform-center-y="-201.2552"
       inkscape:transform-center-x="-15.855265"
       style="fill:none;stroke:#000000;stroke-width:1.00000012px;stroke-linecap:butt;stroke-linejoin:miter;stroke-opacity:0.46859903"
       d="M 543.56998,538.4212 574.31727,136.94626"
       id="path4618"
       inkscape:connector-curvature="0" />
    <path
       inkscape:connector-curvature="0"
       id="path4620"
       d="M 543.61269,538.4645 608.74424,141.11654"
       style="fill:none;stroke:#000000;stroke-width:1.00000012px;stroke-linecap:butt;stroke-linejoin:miter;stroke-opacity:0.46859903"
       inkscape:transform-center-x="-33.090105"
       inkscape:transform-center-y="-199.14841" />
    <path
       style="fill:none;stroke:#000000;stroke-width:1px;stroke-linecap:butt;stroke-linejoin:miter;stroke-opacity:1"
       d="M 543.58834,538.43891 610.97879,140.94147"
       id="path4622"
       inkscape:connector-curvature="0" />
    <path
       style="fill:none;stroke:#000000;stroke-width:1px;stroke-linecap:butt;stroke-linejoin:miter;stroke-opacity:1"
       d="m 551.95313,492.53174 c 35.81348,6.59624 36.27977,80.28053 -7.49729,76.34229 -46.63675,-4.1955 -36.42112,-82.76541 2.41916,-77.12354"
       id="path4624"
       inkscape:connector-curvature="0"
       sodipodi:nodetypes="csc" />
    <text
       sodipodi:linespacing="125%"
       id="text4626"
       y="553.51611"
       x="544.57812"
       style="font-size:14px;font-style:normal;font-variant:normal;font-weight:normal;font-stretch:normal;line-height:125%;letter-spacing:0px;word-spacing:0px;fill:#000000;fill-opacity:1;stroke:none;display:inline;font-family:Serif;-inkscape-font-specification:Sans"
       xml:space="preserve"><tspan
         style="font-style:italic;-inkscape-font-specification:Serif Italic"
         y="553.51611"
         x="544.57812"
         id="tspan4628"
         sodipodi:role="line">λ</tspan></text>
  </g>
  <g
     inkscape:groupmode="layer"
     id="layer15"
     inkscape:label="planes2"
     style="display:inline">
    <path
       style="fill:none;stroke:#000000;stroke-width:1px;stroke-linecap:butt;stroke-linejoin:miter;stroke-opacity:1"
       d="m 280.71429,845.87995 c -2.85715,-51.07143 -3.05961,-56.8101 1.42857,-93.21428 3.21428,-26.07144 16.05358,-70.07745 24.28571,-92.85715 10.1622,-28.12053 17.14286,-47.14285 41.42857,-90.35714 19.08549,-33.96096 30.71429,-51.78572 55.35715,-83.92857 29.55958,-38.55597 34.64285,-43.92857 66.78571,-77.85714 32.14286,-33.92858 39.64286,-38.92858 76.07143,-67.5 36.42857,-28.57143 46.78571,-36.07143 81.78571,-54.64286 35,-18.57143 45.35715,-23.21429 87.5,-37.14286 42.14286,-13.92857 47.5,-11.42857 90.71429,-15"
       id="path3995"
       inkscape:connector-curvature="0"
       sodipodi:nodetypes="cssssssssc"
       inkscape:transform-center-x="1.1364216"
       inkscape:transform-center-y="1.0101525" />
    <path
       inkscape:transform-center-y="1.0152275"
       inkscape:transform-center-x="5.6688972"
       sodipodi:nodetypes="cssssssssc"
       inkscape:connector-curvature="0"
       id="path3997"
       d="m 325.40381,879.05942 c -9.84427,-50.19507 -10.83296,-55.85155 -11.38709,-92.52717 -0.39685,-26.26583 6.27697,-71.6182 11.30251,-95.31264 6.20381,-29.24974 10.50578,-49.05053 28.62627,-95.19073 14.24041,-36.26036 23.31095,-55.51332 43.30577,-90.73604 23.98416,-42.25035 28.28139,-48.27017 55.45988,-86.29176 27.1785,-38.02159 33.92072,-44.00426 66.08007,-77.30806 32.15935,-33.30381 41.38829,-42.1552 73.50601,-65.35757 32.11772,-23.20237 41.73907,-29.22369 81.56961,-48.8082 39.83055,-19.58451 45.48027,-17.84395 87.79456,-27.31662"
       style="fill:none;stroke:#000000;stroke-width:1px;stroke-linecap:butt;stroke-linejoin:miter;stroke-opacity:0.4879227" />
    <path
       style="fill:none;stroke:#000000;stroke-width:1px;stroke-linecap:butt;stroke-linejoin:miter;stroke-opacity:0.4879227"
       d="m 239.02325,804.62559 c 4.56222,-50.94743 5.19219,-56.65501 14.90031,-92.02676 6.95262,-25.33204 26.02387,-67.01735 37.46527,-88.36628 14.12391,-26.35431 23.78338,-44.16647 54.06603,-83.41225 23.79833,-30.84221 37.88376,-46.79689 66.91793,-75.03605 34.82704,-33.87343 40.63416,-38.45401 77.34778,-67.37497 36.71363,-28.92096 44.85813,-32.7832 85.03727,-55.78329 40.17913,-23.0001 51.51244,-28.92265 88.83118,-42.23467 37.31873,-13.31201 48.23866,-16.40749 91.95333,-24.09203 43.71468,-7.68453 48.65373,-4.43574 91.93005,-1.7171"
       id="path3999"
       inkscape:connector-curvature="0"
       sodipodi:nodetypes="cssssssssc"
       inkscape:transform-center-x="0.25168063"
       inkscape:transform-center-y="-0.54752817" />
    <path
       style="fill:none;stroke:#000000;stroke-width:1px;stroke-linecap:butt;stroke-linejoin:miter;stroke-opacity:0.59420286"
       d="m 483.35799,938.39619 c 58.08377,-16.16244 73.23606,-22.22336 112.12693,-41.41626 38.89087,-19.19289 53.53809,-31.8198 91.92388,-68.69037 38.3858,-36.87057 52.02286,-60.60915 68.69038,-89.3985 16.66751,-28.78935 34.85026,-72.2259 43.43655,-104.55079 8.5863,-32.32488 16.16245,-75.76144 17.67767,-111.11678 1.51523,-35.35533 -1.01015,-66.16499 -11.11167,-112.632 -10.10153,-46.46702 -21.71828,-73.23606 -38.89088,-106.5711 -17.17259,-33.33503 -41.92133,-68.18529 -67.17514,-92.93403 -25.25381,-24.74874 -52.52793,-48.48732 -95.45942,-70.2056"
       id="path3094"
       inkscape:connector-curvature="0"
       inkscape:transform-center-x="-107.5"
       inkscape:transform-center-y="1.7857143" />
    <path
       inkscape:transform-center-y="1.5912943"
       inkscape:transform-center-x="-131.93813"
       inkscape:connector-curvature="0"
       id="path3868"
       d="m 552.96787,942.68758 c 54.44923,-25.88881 68.33687,-34.45969 103.35786,-60.04089 35.02099,-25.58119 47.28445,-40.53402 78.7747,-83.44407 31.49026,-42.91005 40.852,-68.63644 52.33264,-99.85867 11.48063,-31.22224 21.94085,-77.13443 24.85348,-110.45319 2.91264,-33.31875 2.92355,-77.41107 -1.65,-112.50207 -4.57353,-35.091 -12.34781,-65.01045 -30.27237,-109.05513 -17.92457,-44.04468 -33.9621,-68.42353 -56.59969,-98.31772 -22.63757,-29.89419 -52.99892,-59.98121 -82.12463,-80.02986 -29.1257,-20.04865 -60.06843,-38.75547 -106.08969,-52.78545"
       style="fill:none;stroke:#000000;stroke-width:1px;stroke-linecap:butt;stroke-linejoin:miter;stroke-opacity:0.59420286" />
    <path
       style="fill:none;stroke:#000000;stroke-width:1px;stroke-linecap:butt;stroke-linejoin:miter;stroke-opacity:1"
       d="m 517.5602,942.01143 c 56.50287,-21.03271 71.08623,-28.35748 108.20827,-50.78116 37.12205,-22.42366 50.64501,-36.24788 85.7638,-76.24262 35.1188,-39.99473 46.6924,-64.80484 60.85695,-94.90464 14.16455,-30.09981 28.59602,-74.92255 34.40849,-107.85944 5.81249,-32.93687 9.6756,-76.85963 8.18536,-112.21603 -1.49022,-35.3564 -6.62077,-65.84066 -20.62871,-111.28295 C 780.34642,343.28231 766.50014,317.59551 746.5609,285.83784 726.62168,254.08017 699.00506,221.4556 671.74233,198.93896 644.47961,176.42233 615.28957,155.08364 570.67006,137.08654"
       id="path3870"
       inkscape:connector-curvature="0"
       inkscape:transform-center-x="-123.44377"
       inkscape:transform-center-y="1.6962243" />
    <path
       inkscape:transform-center-y="1.0101525"
       inkscape:transform-center-x="1.1364216"
       sodipodi:nodetypes="cssssssssc"
       inkscape:connector-curvature="0"
       id="path3872"
       d="m 280.71429,845.87995 c -2.85715,-51.07143 -3.05961,-56.8101 1.42857,-93.21428 3.21428,-26.07144 16.05358,-70.07745 24.28571,-92.85715 10.1622,-28.12053 17.14286,-47.14285 41.42857,-90.35714 19.08549,-33.96096 30.71429,-51.78572 55.35715,-83.92857 29.55958,-38.55597 34.64285,-43.92857 66.78571,-77.85714 32.14286,-33.92858 39.64286,-38.92858 76.07143,-67.5 36.42857,-28.57143 46.78571,-36.07143 81.78571,-54.64286 35,-18.57143 45.35715,-23.21429 87.5,-37.14286 42.14286,-13.92857 47.5,-11.42857 90.71429,-15"
       style="fill:none;stroke:#000000;stroke-width:1px;stroke-linecap:butt;stroke-linejoin:miter;stroke-opacity:1" />
    <path
       style="fill:none;stroke:#000000;stroke-width:1px;stroke-linecap:butt;stroke-linejoin:miter;stroke-opacity:0.49758456"
       d="m 282.78552,847.58286 c -7.30013,-54.42818 -7.99136,-60.53621 -6.09385,-98.90215 1.35893,-27.47639 11.72145,-73.36413 18.81155,-97.01317 8.75242,-29.19367 14.78882,-48.93491 37.67377,-93.22578 17.98466,-34.80702 29.17804,-52.96939 53.36013,-85.47846 29.00689,-38.99525 34.09832,-44.36537 66.29636,-78.27556 32.19804,-33.91019 39.95023,-38.72498 77.25212,-66.66263 37.30189,-27.93766 47.95846,-35.21881 84.52613,-52.63051 36.56767,-17.4117 47.45869,-21.65846 92.18109,-33.66753 44.72241,-12.00904 50.75788,-9.00013 97.49621,-9.9388"
       id="path3878"
       inkscape:connector-curvature="0"
       sodipodi:nodetypes="cssssssssc"
       inkscape:transform-center-x="3.5302633"
       inkscape:transform-center-y="1.0657675" />
    <path
       style="fill:none;stroke:#000000;stroke-width:1px;stroke-linecap:butt;stroke-linejoin:miter;stroke-opacity:0.5024155"
       d="m 281.56566,846.6403 c -0.81903,-49.18645 -0.79804,-54.71843 4.83638,-90.06098 4.03518,-25.31115 17.91174,-68.35429 26.60632,-90.7041 10.73306,-27.58986 18.09488,-46.25779 42.85058,-89.03125 19.45483,-33.61452 31.20177,-51.32711 55.8851,-83.42643 29.60813,-38.50376 34.65285,-43.91076 66.55041,-78.05835 31.89754,-34.14763 39.23156,-39.29934 75.01375,-68.45981 35.78218,-29.16047 45.93231,-36.84945 79.98026,-56.29309 34.04794,-19.44365 44.09157,-24.37402 84.77369,-39.64367 40.68214,-15.26964 45.69439,-13.08742 87.01151,-18.40346"
       id="path3882"
       inkscape:connector-curvature="0"
       sodipodi:nodetypes="cssssssssc"
       inkscape:transform-center-x="0.33221346"
       inkscape:transform-center-y="0.9799325" />
    <path
       inkscape:transform-center-y="1.6821193"
       inkscape:transform-center-x="-111.04706"
       inkscape:connector-curvature="0"
       id="path3888"
       d="m 519.99926,942.15453 c 50.86893,-21.69778 63.99887,-29.19345 97.42263,-52.05067 33.42378,-22.8572 45.60162,-36.83711 77.22868,-77.23456 31.62707,-40.39745 42.05427,-65.33567 54.81568,-95.59237 12.76141,-30.2567 25.76855,-75.2337 31.0129,-108.22683 5.24434,-32.9931 8.73804,-76.94453 7.40972,-112.26917 -1.3283,-35.32465 -5.93524,-65.7357 -18.52763,-110.99307 -12.59238,-45.25734 -25.04658,-70.76896 -42.98311,-102.27643 -17.93652,-31.50747 -42.78353,-63.79 -67.31574,-85.97282 -24.5322,-22.18281 -50.79971,-43.16517 -90.95732,-60.62338"
       style="fill:none;stroke:#000000;stroke-width:1px;stroke-linecap:butt;stroke-linejoin:miter;stroke-opacity:0.49758456" />
    <path
       inkscape:transform-center-y="1.6973743"
       inkscape:transform-center-x="-129.3949"
       inkscape:connector-curvature="0"
       id="path3890"
       d="m 518.48934,942.07098 c 58.69356,-20.99547 73.83305,-28.31099 112.35216,-50.71187 38.51913,-22.40086 52.5233,-36.21786 88.87168,-76.19466 36.3484,-39.97679 48.27022,-64.78324 62.86221,-94.87851 14.592,-30.09528 29.38955,-74.91613 35.2765,-107.85514 5.88696,-32.93899 9.69154,-76.86742 7.96744,-112.23174 -1.72409,-35.36433 -7.21238,-65.85823 -22.0118,-111.31954 -14.79944,-45.46131 -29.33378,-71.16321 -50.23819,-102.94158 -20.9044,-31.77839 -49.80212,-64.42946 -78.28202,-86.97038 -28.4799,-22.54092 -58.95959,-43.90507 -105.47874,-61.93827"
       style="fill:none;stroke:#000000;stroke-width:1px;stroke-linecap:butt;stroke-linejoin:miter;stroke-opacity:0.49758456" />
    <path
       sodipodi:type="arc"
       style="fill:none;stroke:#000000;stroke-width:0.07098457;stroke-linejoin:round;stroke-miterlimit:4;stroke-opacity:0.49758456;stroke-dasharray:none;stroke-dashoffset:0"
       id="path3892"
       sodipodi:cx="546.09375"
       sodipodi:cy="536.28174"
       sodipodi:rx="285.15625"
       sodipodi:ry="284.375"
       d="m 831.25,536.28174 a 285.15625,284.375 0 1 1 -570.3125,0 285.15625,284.375 0 1 1 570.3125,0 z"
       transform="matrix(1.402722,0,0,1.4148172,-222.26774,-218.55263)" />
    <path
       style="fill:#09a076;fill-opacity:0.19323671;stroke:#000000;stroke-width:0.1;stroke-linejoin:round;stroke-miterlimit:4;stroke-opacity:0.49758456;stroke-dasharray:none;stroke-dashoffset:0"
       d="m 463.06547,933.37079 c -33.22343,-7.34681 -59.42377,-16.14717 -88.28125,-29.65251 -17.94315,-8.39742 -47.6617,-25.61639 -48.54972,-28.12977 -0.33013,-0.93436 -2.41384,-11.54258 -4.63047,-23.57383 -9.20947,-49.98647 -7.2275,-102.05383 6.32732,-166.2217 8.33505,-39.45773 25.31674,-88.76156 44.59596,-129.47784 14.3176,-30.23769 52.39424,-80.72936 99.10984,-131.425 30.13794,-32.70559 32.25185,-34.73301 33.21886,-31.85983 0.96133,2.85621 7.70874,2.38671 8.86121,-0.61659 0.54617,-1.4233 -0.12969,-3.80257 -1.5148,-5.33318 -2.34622,-2.59254 -1.40631,-3.48048 15.1967,-14.35639 18.61644,-12.19483 67.70449,-40.58127 86.70358,-50.1386 14.71666,-7.4031 32.64264,-14.71761 57.55652,-23.48535 19.04447,-6.70217 47.75294,-15.0415 51.81136,-15.05033 0.99625,-0.002 5.03317,5.95477 8.97093,13.23763 26.80976,49.58427 46.46551,115.38612 52.45247,175.59585 3.55636,35.7656 0.73077,105.23729 -4.4365,109.07813 -2.13239,1.58501 -2.22668,2.42073 -0.57773,5.12095 2.19044,3.58694 1.81056,7.7253 -3.02013,32.901 -5.32284,27.74064 -20.43803,79.27296 -27.03995,92.1875 -1.09828,2.14844 -3.60078,8.125 -5.56111,13.28125 -11.87675,31.23939 -31.4303,62.62235 -64.59186,103.6683 -16.48708,20.407 -32.55581,35.06798 -53.31998,48.64872 -15.43838,10.09742 -60.48755,32.28211 -80.53692,39.66081 -17.37168,6.39324 -54.85136,17.86785 -61.65058,18.87464 -2.57813,0.38177 -12.07032,-0.93847 -21.09375,-2.93386 z m 187.1939,-152.64087 c 0.50611,-4.36427 -2.54939,-6.66392 -6.72515,-5.06153 -2.39667,0.91968 -3.23094,6.96951 -1.23617,8.96429 2.54645,2.54646 7.49471,0.12078 7.96132,-3.90276 z M 337.06801,705.13968 c 1.44898,-3.776 -0.62109,-7.03125 -4.47129,-7.03125 -3.85021,0 -5.92028,3.25525 -4.47129,7.03125 0.49466,1.28907 2.50674,2.34375 4.47129,2.34375 1.96455,0 3.97663,-1.05468 4.47129,-2.34375 z m 145.414,-81.35851 c 2.99086,-2.99085 0.55843,-8.95661 -3.33887,-8.18888 -4.03689,0.79524 -6.06858,5.29603 -3.68638,8.16642 2.57677,3.10482 3.93855,3.10916 7.02525,0.0225 z m 115.39836,-2.62586 c 1.13536,-3.16641 -1.86417,-7.42188 -5.23142,-7.42188 -3.4542,0 -5.40604,3.41522 -4.01844,7.03125 1.08657,2.83155 8.26593,3.13474 9.24986,0.39063 z m -152.98589,-3.08703 c 1.11974,-1.77514 0.98199,-3.23521 -0.47031,-4.98513 -2.7674,-3.3345 -5.90428,-3.11837 -7.86313,0.54177 -1.22434,2.2877 -1.00505,3.62581 0.90764,5.53851 2.87036,2.87036 5.1351,2.53636 7.4258,-1.09515 z m 252.23077,-5.25283 c 0.56878,-3.98091 -3.05516,-7.30188 -6.51799,-5.97305 -2.55304,0.97969 -3.50354,6.97095 -1.43421,9.04028 2.20523,2.20524 7.49012,0.16681 7.9522,-3.06723 z M 401.2065,579.94164 c 1.22028,-3.18 -1.67448,-6.83321 -5.41456,-6.83321 -2.97755,0 -5.48821,5.11364 -3.82887,7.79852 1.55395,2.51434 8.17344,1.82306 9.24343,-0.96531 z m 46.79901,-10.73946 c 1.44899,-3.776 -0.62109,-7.03125 -4.47129,-7.03125 -3.85021,0 -5.92028,3.25525 -4.47129,7.03125 0.49466,1.28906 2.50674,2.34375 4.47129,2.34375 1.96455,0 3.97663,-1.05469 4.47129,-2.34375 z m 31.96061,-16.01562 c -0.57004,-4.95421 -6.86168,-7.06399 -8.48106,-2.84397 -1.54698,4.0314 0.59383,7.14084 4.91641,7.14084 3.50626,0 3.99173,-0.58519 3.56465,-4.29687 z m 120.34543,-65.83892 c 0.63478,-4.48943 -2.42819,-6.77368 -6.30252,-4.70021 -2.82417,1.51146 -3.78933,6.15689 -1.71098,8.23525 2.38859,2.38858 7.4944,0.13625 8.0135,-3.53504 z"
       id="path3896"
       inkscape:connector-curvature="0"
       sodipodi:nodetypes="csssssssscssscsssssssssssccssssssssscssccsssscssscccsscccssccssssssssscsscc" />
    <path
       style="fill:#09a076;fill-opacity:0.19323671;stroke:#000000;stroke-width:0.1;stroke-linejoin:round;stroke-miterlimit:4;stroke-opacity:0.49758456;stroke-dasharray:none;stroke-dashoffset:0"
       d="m 702.67883,207.09281 c 0.21105,-4.6519 -0.16306,-5.07813 -4.45711,-5.07813 -3.62807,0 -8.74864,-3.37534 -22.65625,-14.93441 -18.84963,-15.66653 -32.28759,-25.5288 -47.7608,-35.0522 l -9.27045,-5.70574 7.03125,1.06963 c 10.12258,1.53989 40.98472,10.57288 58.86431,17.22891 22.63915,8.42786 69.26069,32.10285 69.26069,35.17142 0,0.56901 -4.39453,1.86963 -9.76563,2.89027 -5.37109,1.02064 -16.3322,3.57306 -24.35801,5.67204 -8.02581,2.09898 -15.16074,3.81633 -15.85539,3.81633 -0.69465,0 -1.15932,-2.28516 -1.03261,-5.07812 l 0,0 z"
       id="path5332"
       inkscape:connector-curvature="0" />
    <path
       style="fill:#b10629;fill-opacity:0.19323671;stroke:#000000;stroke-width:0.1;stroke-linejoin:round;stroke-miterlimit:4;stroke-opacity:0.49758456;stroke-dasharray:none;stroke-dashoffset:0"
       d="m 231.27052,789.70103 c -21.3004,-25.99433 -49.73997,-76.99664 -62.79266,-112.60968 -7.67052,-20.92831 -15.65405,-53.18189 -19.74352,-79.76417 -4.45375,-28.95014 -4.80941,-81.38133 -0.74193,-109.375 11.00036,-75.70794 38.37706,-140.11284 84.29087,-198.298 15.16821,-19.2222 47.10751,-51.14619 65.33644,-65.30511 65.74815,-51.06846 142.42309,-80.13232 224.0395,-84.92283 16.92922,-0.99367 17.41056,-0.9265 32.03125,4.47025 42.24259,15.59247 86.3117,42.19482 118.24062,71.37606 l 8.41236,7.68842 -23.28528,11.79445 c -12.80692,6.48695 -28.66933,15.3092 -35.24983,19.60498 -14.3781,10.49186 -25.75201,17.54733 -37.757,26.52729 -11.66089,8.68724 -26.95386,21.27366 -33.98437,27.96982 -7.03052,6.69616 -22.85124,19.72883 -35.15717,28.96148 -28.91418,21.69318 -45.73432,37.05052 -74.19174,67.73944 -41.7957,45.07313 -74.84044,90.36266 -103.6258,142.02453 -2.47254,4.43757 -10.82367,17.45971 -18.55804,28.9381 -42.71764,63.39615 -71.67411,136.64358 -77.40689,195.80612 -2.51737,25.97939 -2.63513,26.18696 -9.85681,17.37385 z m 18.5137,-204.0926 c 0,-2.92836 -0.93366,-4.03826 -3.72955,-4.43358 -4.53075,-0.64062 -6.76835,2.43816 -4.64946,6.39733 2.35126,4.39338 8.37901,2.98067 8.37901,-1.96375 z m 69.53125,-14.7074 c 0,-3.5596 -4.61289,-6.41743 -7.45985,-4.62161 -3.63151,2.2907 -3.96551,4.55543 -1.09515,7.42581 1.9127,1.91269 3.25081,2.13197 5.53851,0.90762 1.65906,-0.8879 3.01649,-2.55821 3.01649,-3.71182 z m -34.49052,-11.63925 c 2.04937,-3.82929 -1.46277,-8.95622 -5.16272,-7.53641 -3.60212,1.38227 -4.8283,5.33766 -2.51775,8.1217 2.6249,3.16282 5.80421,2.92053 7.68047,-0.58529 z m 40.45367,-20.91897 c 0.42708,-3.71169 -0.0584,-4.29688 -3.56465,-4.29688 -4.32258,0 -6.46339,3.10944 -4.91641,7.14085 1.61938,4.22001 7.91102,2.11023 8.48106,-2.84397 z m -164.6847,-2.1203 c 2.73391,-1.04909 3.37806,-7.68189 0.89506,-9.21647 -0.86706,-0.53587 -2.97644,-0.52998 -4.6875,0.0125 -3.49394,1.10894 -4.34753,7.82995 -1.15789,9.117 1.07422,0.43345 2.0714,0.84361 2.21596,0.91145 0.14456,0.0678 1.37502,-0.30342 2.73437,-0.82506 z m 101.5625,-23.4375 c 1.35935,-0.52162 2.47155,-2.55578 2.47155,-4.52033 0,-3.8502 -3.25525,-5.92028 -7.03125,-4.47129 -2.83348,1.08731 -3.12797,7.80068 -0.39063,8.90523 1.07422,0.43345 2.0714,0.84361 2.21596,0.91145 0.14456,0.0678 1.37502,-0.30342 2.73437,-0.82506 z m 54.8153,-58.42658 c 0,-2.86364 -0.94022,-4.03976 -3.52261,-4.40647 -3.83924,-0.54517 -6.01978,2.80564 -4.46405,6.85982 0.56469,1.47156 2.35111,2.25315 4.46405,1.95312 2.58239,-0.3667 3.52261,-1.54283 3.52261,-4.40647 z"
       id="path5338"
       inkscape:connector-curvature="0"
       sodipodi:nodetypes="ssssssssscsccsssssssssssssssscssccsssscscsccccsssccsssss" />
    <path
       style="fill:#b10629;fill-opacity:0.19323671;stroke:#000000;stroke-width:0.1;stroke-linejoin:round;stroke-miterlimit:4;stroke-opacity:0.49758456;stroke-dasharray:none;stroke-dashoffset:0"
       d="m 586.25394,927.81354 c 61.26418,-31.9939 102.91762,-65.37195 135.53931,-108.61136 18.08551,-23.97198 39.18517,-54.88392 46.55984,-68.21223 7.66111,-16.71418 14.90118,-29.45723 22.2236,-46.80602 11.93667,-26.41164 26.05723,-74.7945 30.87839,-107.638 14.4894,-98.70739 1.81615,-179.26741 -42.65839,-271.16635 -7.50544,-15.50869 -16.20266,-32.55947 -19.32717,-37.89063 -3.1245,-5.33116 -5.25957,-9.69302 -4.74457,-9.69302 0.515,0 8.05152,-1.14405 16.74782,-2.54233 12.51923,-2.01297 21.49678,-2.32624 43.11623,-1.5045 32.0167,1.21694 28.18716,-0.80384 47.64358,25.14058 55.2375,73.65715 83.14044,162.2183 79.99822,253.90625 -1.5001,43.77169 -6.87132,73.6513 -20.78502,115.625 -14.31839,43.19453 -37.79076,86.54802 -66.83134,123.4375 -12.56653,15.96294 -48.77322,51.80558 -64.98647,64.33305 -61.22703,47.30825 -137.41725,77.96045 -207.06039,83.30277 -6.85897,0.52614 -14.9318,1.2969 -17.93961,1.71278 -3.78523,0.52337 2.87221,-3.59974 21.62597,-13.39349 z m 270.50345,-524.9091 c 1.22434,-2.2877 1.00506,-3.62581 -0.90762,-5.5385 -2.87038,-2.87036 -5.13511,-2.53636 -7.42582,1.09514 -1.11973,1.77515 -0.98198,3.23521 0.47032,4.98513 2.7674,3.33451 5.90428,3.11838 7.86312,-0.54177 z"
       id="path5340"
       inkscape:connector-curvature="0"
       sodipodi:nodetypes="ssccsssssssssssssscssscc" />
  </g>
  <g
     inkscape:groupmode="layer"
     id="layer16"
     inkscape:label="vectors2"
     style="display:none">
    <path
       sodipodi:type="arc"
       id="path3092"
       style="fill:#000000;stroke:none;display:inline"
       sodipodi:cx="787.14282"
       sodipodi:cy="693.73712"
       sodipodi:rx="1.5"
       sodipodi:ry="1.5"
       d="m 788.64282,693.73712 a 1.5,1.5 0 1 1 -3,0 1.5,1.5 0 1 1 3,0 z" />
    <path
       sodipodi:type="arc"
       id="path3886"
       style="fill:#000000;stroke:none;display:inline"
       sodipodi:cx="749.78571"
       sodipodi:cy="714.89996"
       sodipodi:rx="1.5"
       sodipodi:ry="1.5"
       d="m 751.28571,714.89996 a 1.5,1.5 0 1 1 -3,0 1.5,1.5 0 1 1 3,0 z" />
    <path
       style="fill:none;stroke:#000000;stroke-width:1px;stroke-linecap:butt;stroke-linejoin:miter;stroke-opacity:1;display:inline"
       d="m 889.06735,745.27422 c -25.38137,-1.70627 -62.08625,-4.25794 -81.20223,-8.66315 -19.11599,-4.40521 -56.95291,-13.99464 -85.40835,-24.70286 -28.45543,-10.7082 -60.41758,-22.99879 -88.86196,-35.66008 -28.44437,-12.6613 -48.69239,-24.10429 -87.63701,-45.02831 -38.94462,-20.92402 -56.46273,-31.57028 -85.26012,-50.87431 -28.79738,-19.30403 -45.14142,-30.33427 -81.70915,-57.1043 0,0 -48.60611,-39.33842 -72.70279,-60.9596 -24.09669,-21.6212 -45.05958,-44.78717 -62.13618,-64.41545 -17.07661,-19.62827 -32.18907,-41.19858 -46.49815,-66.67065"
       id="path3111"
       inkscape:connector-curvature="0" />
    <path
       inkscape:connector-curvature="0"
       id="path4526"
       d="M 184.78576,360.83356 543.49943,539.52988"
       style="fill:none;stroke:#000000;stroke-width:1;stroke-linecap:butt;stroke-linejoin:miter;stroke-miterlimit:4;stroke-opacity:1;stroke-dasharray:1, 4;stroke-dashoffset:0;marker-start:url(#Arrow1Lstart);display:inline"
       sodipodi:nodetypes="cc" />
    <path
       inkscape:connector-curvature="0"
       id="path4528"
       d="M 543.42728,539.27407 653.46459,922.92826"
       style="fill:none;stroke:#000000;stroke-width:1;stroke-linecap:butt;stroke-linejoin:miter;stroke-miterlimit:4;stroke-opacity:1;stroke-dasharray:1, 4;stroke-dashoffset:0;marker-end:url(#Arrow1Lend);display:inline"
       sodipodi:nodetypes="cc" />
    <path
       style="fill:none;stroke:#000000;stroke-width:1px;stroke-linecap:butt;stroke-linejoin:miter;stroke-opacity:1;display:inline"
       d="M 543.03591,539.54376 806.07143,233.37995"
       id="path4716"
       inkscape:connector-curvature="0"
       sodipodi:nodetypes="cc" />
    <path
       style="fill:none;stroke:#000000;stroke-width:1px;stroke-linecap:butt;stroke-linejoin:miter;stroke-opacity:1;display:inline"
       d="m 562.83352,514.801 c 38.33836,39.44949 -41.34987,79.30249 -56.19326,21.87599"
       id="path4718"
       inkscape:connector-curvature="0"
       sodipodi:nodetypes="cc" />
    <text
       xml:space="preserve"
       style="font-size:14px;font-style:normal;font-variant:normal;font-weight:normal;font-stretch:normal;line-height:125%;letter-spacing:0px;word-spacing:0px;fill:#000000;fill-opacity:1;stroke:none;display:inline;font-family:Serif;-inkscape-font-specification:Sans"
       x="544.57812"
       y="553.51611"
       id="text4720"
       sodipodi:linespacing="125%"><tspan
         sodipodi:role="line"
         id="tspan4722"
         x="544.57812"
         y="553.51611"
         style="font-style:italic;-inkscape-font-specification:Serif Italic">λ</tspan></text>
    <path
       style="fill:none;stroke:#000000;stroke-width:1;stroke-linecap:butt;stroke-linejoin:miter;stroke-miterlimit:4;stroke-opacity:0.25120778;stroke-dasharray:1, 4;stroke-dashoffset:0;marker-end:none;display:inline"
       d="M 543.0359,539.54378 147.49804,474.72069"
       id="path5096"
       inkscape:connector-curvature="0" />
    <path
       inkscape:connector-curvature="0"
       id="path5098"
       d="M 543.03589,539.54378 147.49804,507.32624"
       style="fill:none;stroke:#000000;stroke-width:1;stroke-linecap:butt;stroke-linejoin:miter;stroke-miterlimit:4;stroke-opacity:1;stroke-dasharray:1, 4;stroke-dashoffset:0;marker-end:none;display:inline" />
    <path
       style="fill:none;stroke:#000000;stroke-width:1;stroke-linecap:butt;stroke-linejoin:miter;stroke-miterlimit:4;stroke-opacity:0.33816427;stroke-dasharray:1, 4;stroke-dashoffset:0;marker-end:none;display:inline"
       d="m 543.0359,540.54375 -399.95727,3.82942"
       id="path5100"
       inkscape:connector-curvature="0" />
    <path
       style="fill:none;stroke:#000000;stroke-width:1px;stroke-linecap:butt;stroke-linejoin:miter;stroke-opacity:1;marker-end:url(#Arrow1Lend);display:inline"
       d="m 543.03591,537.88649 30.3835,107.72329"
       id="path3115"
       inkscape:connector-curvature="0" />
    <path
       style="fill:none;stroke:#000000;stroke-width:1px;stroke-linecap:butt;stroke-linejoin:miter;stroke-opacity:1;marker-start:url(#Arrow1Lstart);display:inline"
       d="M 233.67669,385.14037 543.31213,538.57702"
       id="path4330"
       inkscape:connector-curvature="0" />
    <text
       xml:space="preserve"
       style="font-size:14px;font-style:normal;font-variant:normal;font-weight:normal;font-stretch:normal;line-height:125%;letter-spacing:0px;word-spacing:0px;fill:#000000;fill-opacity:1;stroke:none;display:inline;font-family:Serif;-inkscape-font-specification:Sans"
       x="563.47571"
       y="664.39233"
       id="text4518"
       sodipodi:linespacing="125%"><tspan
         sodipodi:role="line"
         id="tspan4520"
         x="563.47571"
         y="664.39233">P</tspan></text>
    <text
       xml:space="preserve"
       style="font-size:14px;font-style:normal;font-variant:normal;font-weight:normal;font-stretch:normal;line-height:125%;letter-spacing:0px;word-spacing:0px;fill:#000000;fill-opacity:1;stroke:none;display:inline;font-family:Serif;-inkscape-font-specification:Sans"
       x="234.22913"
       y="371.6059"
       id="text4522"
       sodipodi:linespacing="125%"><tspan
         sodipodi:role="line"
         id="tspan4524"
         x="234.22913"
         y="371.6059">T</tspan></text>
    <path
       style="fill:none;stroke:#000000;stroke-width:1px;stroke-linecap:butt;stroke-linejoin:miter;stroke-opacity:1;marker-end:url(#Arrow1Lend);display:inline"
       d="M 543.03591,539.54377 381.72718,526.83794"
       id="path4530"
       inkscape:connector-curvature="0" />
    <path
       inkscape:connector-curvature="0"
       id="path4724"
       d="M 543.03591,539.54376 382.83203,513.78481"
       style="fill:none;stroke:#000000;stroke-width:1px;stroke-linecap:butt;stroke-linejoin:miter;stroke-opacity:0.25120778;marker-end:none;display:inline" />
    <path
       inkscape:connector-curvature="0"
       id="path4910"
       d="m 543.0359,540.54378 -162.41358,0.96827"
       style="fill:none;stroke:#000000;stroke-width:1px;stroke-linecap:butt;stroke-linejoin:miter;stroke-opacity:0.33816427;marker-end:none;display:inline" />
    <path
       sodipodi:type="arc"
       id="path3113"
       style="fill:#000000;stroke:none;display:inline"
       sodipodi:cx="572.867"
       sodipodi:cy="645.6098"
       sodipodi:rx="1.5"
       sodipodi:ry="1.5"
       d="m 574.367,645.6098 a 1.5,1.5 0 1 1 -3,0 1.5,1.5 0 1 1 3,0 z" />
    <path
       sodipodi:type="arc"
       id="path5346"
       style="fill:#000000;stroke:none;display:inline"
       sodipodi:cx="381.64062"
       sodipodi:cy="526.3208"
       sodipodi:rx="1.5"
       sodipodi:ry="1.5"
       d="m 383.14062,526.3208 a 1.5,1.5 0 1 1 -3,0 1.5,1.5 0 1 1 3,0 z" />
    <path
       sodipodi:type="arc"
       id="path5348"
       style="fill:#000000;stroke:none;display:inline"
       sodipodi:cx="358.20312"
       sodipodi:cy="524.7583"
       sodipodi:rx="1.5"
       sodipodi:ry="1.5"
       d="m 359.70312,524.7583 a 1.5,1.5 0 1 1 -3,0 1.5,1.5 0 1 1 3,0 z" />
    <path
       sodipodi:type="arc"
       id="path5350"
       style="fill:#000000;stroke:none;display:inline"
       sodipodi:cx="406.25"
       sodipodi:cy="528.07861"
       sodipodi:rx="1.5"
       sodipodi:ry="1.5"
       d="m 407.75,528.07861 a 1.5,1.5 0 1 1 -3,0 1.5,1.5 0 1 1 3,0 z" />
    <path
       sodipodi:type="arc"
       id="path5352"
       style="fill:#000000;stroke:none;display:inline"
       sodipodi:cx="382.03125"
       sodipodi:cy="541.55518"
       sodipodi:rx="1.5"
       sodipodi:ry="1.5"
       d="m 383.53125,541.55518 a 1.5,1.5 0 1 1 -3,0 1.5,1.5 0 1 1 3,0 z" />
    <path
       sodipodi:type="arc"
       id="path5354"
       style="fill:#000000;stroke:none;display:inline"
       sodipodi:cx="383.38446"
       sodipodi:cy="513.02728"
       sodipodi:rx="1.5"
       sodipodi:ry="1.5"
       d="m 384.88446,513.02728 a 1.5,1.5 0 1 1 -3,0 1.5,1.5 0 1 1 3,0 z" />
    <text
       xml:space="preserve"
       style="font-size:14px;font-style:normal;font-variant:normal;font-weight:normal;font-stretch:normal;line-height:125%;letter-spacing:0px;word-spacing:0px;fill:#000000;fill-opacity:1;stroke:none;display:inline;font-family:Serif;-inkscape-font-specification:Sans"
       x="387.5"
       y="523.25049"
       id="text5356"
       sodipodi:linespacing="125%"><tspan
         sodipodi:role="line"
         id="tspan5358"
         x="387.5"
         y="523.25049">P2</tspan></text>
    <text
       xml:space="preserve"
       style="font-size:14px;font-style:normal;font-variant:normal;font-weight:normal;font-stretch:normal;line-height:125%;letter-spacing:0px;word-spacing:0px;fill:#000000;fill-opacity:1;stroke:none;display:inline;font-family:Serif;-inkscape-font-specification:Sans"
       x="569.50507"
       y="301.9054"
       id="text3082"
       sodipodi:linespacing="125%"><tspan
         sodipodi:role="line"
         id="tspan3084"
         x="569.50507"
         y="301.9054">FP1</tspan></text>
    <path
       sodipodi:type="arc"
       id="path3884"
       style="fill:#000000;stroke:none;display:inline"
       sodipodi:cx="775.79718"
       sodipodi:cy="737.62836"
       sodipodi:rx="1.5"
       sodipodi:ry="1.5"
       d="m 777.29718,737.62836 a 1.5,1.5 0 1 1 -3,0 1.5,1.5 0 1 1 3,0 z" />
    <path
       sodipodi:type="arc"
       id="path3080"
       style="fill:#000000;stroke:none;display:inline"
       sodipodi:cx="762.91772"
       sodipodi:cy="726.76923"
       sodipodi:rx="1.5"
       sodipodi:ry="1.5"
       d="m 764.41772,726.76923 a 1.5,1.5 0 1 1 -3,0 1.5,1.5 0 1 1 3,0 z" />
    <path
       sodipodi:type="arc"
       id="path3090"
       style="fill:#000000;stroke:none;display:inline"
       sodipodi:cx="733.87579"
       sodipodi:cy="756.06366"
       sodipodi:rx="1.5"
       sodipodi:ry="1.5"
       d="m 735.37579,756.06366 a 1.5,1.5 0 1 1 -3,0 1.5,1.5 0 1 1 3,0 z" />
    <text
       xml:space="preserve"
       style="font-size:14px;font-style:normal;font-variant:normal;font-weight:normal;font-stretch:normal;line-height:125%;letter-spacing:0px;word-spacing:0px;fill:#000000;fill-opacity:1;stroke:none;display:inline;font-family:Serif;-inkscape-font-specification:Sans"
       x="771.75653"
       y="727.27429"
       id="text3086"
       sodipodi:linespacing="125%"><tspan
         sodipodi:role="line"
         id="tspan3088"
         x="771.75653"
         y="727.27429">P1</tspan></text>
    <text
       xml:space="preserve"
       style="font-size:14px;font-style:normal;font-variant:normal;font-weight:normal;font-stretch:normal;line-height:125%;letter-spacing:0px;word-spacing:0px;fill:#000000;fill-opacity:1;stroke:none;display:inline;font-family:Serif;-inkscape-font-specification:Sans"
       x="787.76117"
       y="545.62048"
       id="text5342"
       sodipodi:linespacing="125%"><tspan
         sodipodi:role="line"
         id="tspan5344"
         x="787.76117"
         y="545.62048">FP2</tspan></text>
  </g>
  <g
     inkscape:groupmode="layer"
     id="layer14"
     inkscape:label="legend"
     transform="translate(78.230484,80.479654)">
    <g
       id="g3888"
       transform="matrix(2,0,0,2,-879.58594,-665.71045)">
      <rect
         y="767.71429"
         x="768.57141"
         height="138.57149"
         width="138.57141"
         id="rect3850"
         style="fill:url(#linearGradient3978);fill-opacity:1;stroke:#ff0000;stroke-width:0.05;stroke-linejoin:round;stroke-miterlimit:4;stroke-opacity:0.77184466;stroke-dasharray:none;stroke-dashoffset:0" />
      <rect
         transform="translate(0,-40)"
         mask="url(#mask3882)"
         style="fill:url(#linearGradient3980);fill-opacity:1;stroke:#ff0000;stroke-width:0.05;stroke-linejoin:round;stroke-miterlimit:4;stroke-opacity:0.77184466;stroke-dasharray:none;stroke-dashoffset:0"
         id="rect3860"
         width="138.57141"
         height="138.57149"
         x="768.57141"
         y="807.71429" />
    </g>
    <text
       xml:space="preserve"
       style="font-size:28px;font-style:normal;font-variant:normal;font-weight:normal;font-stretch:normal;line-height:125%;letter-spacing:0px;word-spacing:0px;fill:#000000;fill-opacity:1;stroke:none;font-family:Serif;-inkscape-font-specification:Sans"
       x="941.27124"
       y="859.14673"
       id="text3896"
       sodipodi:linespacing="125%"><tspan
         sodipodi:role="line"
         id="tspan3898"
         x="941.27124"
         y="859.14673">cc</tspan></text>
    <text
       xml:space="preserve"
       style="font-size:28px;font-style:normal;font-variant:normal;font-weight:normal;font-stretch:normal;line-height:125%;letter-spacing:0px;word-spacing:0px;fill:#000000;fill-opacity:1;stroke:none;font-family:Serif;-inkscape-font-specification:Sans"
       x="942.69983"
       y="1170.861"
       id="text3900"
       sodipodi:linespacing="125%"><tspan
         sodipodi:role="line"
         id="tspan3902"
         x="942.69983"
         y="1170.861">cd</tspan></text>
    <text
       xml:space="preserve"
       style="font-size:28px;font-style:normal;font-variant:normal;font-weight:normal;font-stretch:normal;line-height:125%;letter-spacing:0px;word-spacing:0px;fill:#000000;fill-opacity:1;stroke:none;font-family:Serif;-inkscape-font-specification:Sans"
       x="614.69983"
       y="1174.5753"
       id="text3904"
       sodipodi:linespacing="125%"><tspan
         sodipodi:role="line"
         id="tspan3906"
         x="614.69983"
         y="1174.5753">dd</tspan></text>
    <text
       xml:space="preserve"
       style="font-size:28px;font-style:normal;font-variant:normal;font-weight:normal;font-stretch:normal;line-height:125%;letter-spacing:0px;word-spacing:0px;fill:#000000;fill-opacity:1;stroke:none;font-family:Serif;-inkscape-font-specification:Sans"
       x="947.55688"
       y="1014.5753"
       id="text3908"
       sodipodi:linespacing="125%"><tspan
         sodipodi:role="line"
         id="tspan3910"
         x="947.55688"
         y="1014.5753">cn</tspan></text>
    <text
       xml:space="preserve"
       style="font-size:28px;font-style:normal;font-variant:normal;font-weight:normal;font-stretch:normal;line-height:125%;letter-spacing:0px;word-spacing:0px;fill:#000000;fill-opacity:1;stroke:none;font-family:Serif;-inkscape-font-specification:Sans"
       x="714.69983"
       y="1179.7181"
       id="text3912"
       sodipodi:linespacing="125%"><tspan
         sodipodi:role="line"
         id="tspan3914"
         x="714.69983"
         y="1179.7181">-d</tspan></text>
    <text
       xml:space="preserve"
       style="font-size:28px;font-style:normal;font-variant:normal;font-weight:normal;font-stretch:normal;line-height:125%;letter-spacing:0px;word-spacing:0px;fill:#000000;fill-opacity:1;stroke:none;font-family:Serif;-inkscape-font-specification:Sans"
       x="848.98547"
       y="856.86096"
       id="text3916"
       sodipodi:linespacing="125%"><tspan
         sodipodi:role="line"
         id="tspan3918"
         x="848.98547"
         y="856.86096">+c</tspan></text>
    <text
       xml:space="preserve"
       style="font-size:28px;font-style:normal;font-variant:normal;font-weight:normal;font-stretch:normal;line-height:125%;letter-spacing:0px;word-spacing:0px;fill:#000000;fill-opacity:1;stroke:none;font-family:Serif;-inkscape-font-specification:Sans"
       x="946.69983"
       y="1087.4324"
       id="text3920"
       sodipodi:linespacing="125%"><tspan
         sodipodi:role="line"
         id="tspan3922"
         x="946.69983"
         y="1087.4324">c-</tspan></text>
    <text
       xml:space="preserve"
       style="font-size:28px;font-style:normal;font-variant:normal;font-weight:normal;font-stretch:normal;line-height:125%;letter-spacing:0px;word-spacing:0px;fill:#000000;fill-opacity:1;stroke:none;font-family:Serif;-inkscape-font-specification:Sans"
       x="617.27124"
       y="1091.1467"
       id="text3924"
       sodipodi:linespacing="125%"><tspan
         sodipodi:role="line"
         id="tspan3926"
         x="617.27124"
         y="1091.1467">d-</tspan></text>
    <text
       sodipodi:linespacing="125%"
       id="text3982"
       y="862.57532"
       x="614.69983"
       style="font-size:28px;font-style:normal;font-variant:normal;font-weight:normal;font-stretch:normal;line-height:125%;letter-spacing:0px;word-spacing:0px;fill:#000000;fill-opacity:1;stroke:none;font-family:Serif;-inkscape-font-specification:Sans"
       xml:space="preserve"><tspan
         y="862.57532"
         x="614.69983"
         id="tspan3984"
         sodipodi:role="line">dc</tspan></text>
    <path
       style="fill:none;stroke:#000000;stroke-width:1px;stroke-linecap:butt;stroke-linejoin:miter;stroke-opacity:1;marker-end:url(#Arrow1Lend)"
       d="m 735.78737,1089.4067 277.14283,0"
       id="path3135"
       inkscape:connector-curvature="0"
       transform="translate(-78.230484,-80.479654)" />
    <path
       style="fill:none;stroke:#000000;stroke-width:1px;stroke-linecap:butt;stroke-linejoin:miter;stroke-opacity:1;marker-end:url(#Arrow1Lend)"
       d="m 878.90625,1227.3408 0,-277.14301"
       id="path3137"
       inkscape:connector-curvature="0"
       transform="translate(-78.230484,-80.479654)" />
    <text
       xml:space="preserve"
       style="font-size:14px;font-style:normal;font-variant:normal;font-weight:normal;font-stretch:normal;line-height:125%;letter-spacing:0px;word-spacing:0px;fill:#000000;fill-opacity:1;stroke:none;font-family:Serif;-inkscape-font-specification:Sans"
       x="874.89453"
       y="1028.2709"
       id="text4103"
       sodipodi:linespacing="125%"><tspan
         sodipodi:role="line"
         id="tspan4105"
         x="874.89453"
         y="1028.2709">EQ1 +</tspan></text>
    <text
       xml:space="preserve"
       style="font-size:14px;font-style:normal;font-variant:normal;font-weight:normal;font-stretch:normal;line-height:125%;letter-spacing:0px;word-spacing:0px;fill:#000000;fill-opacity:1;stroke:none;font-family:Serif;-inkscape-font-specification:Sans"
       x="888.28125"
       y="972.21924"
       id="text4107"
       sodipodi:linespacing="125%"
       transform="translate(-78.230484,-80.479654)"><tspan
         sodipodi:role="line"
         id="tspan4109"
         x="888.28125"
         y="972.21924">EQ2 +</tspan></text>
    <text
       sodipodi:linespacing="125%"
       id="text4111"
       y="1131.7396"
       x="810.05078"
       style="font-size:14px;font-style:normal;font-variant:normal;font-weight:normal;font-stretch:normal;line-height:125%;letter-spacing:0px;word-spacing:0px;fill:#000000;fill-opacity:1;stroke:none;font-family:Serif;-inkscape-font-specification:Sans"
       xml:space="preserve"><tspan
         y="1131.7396"
         x="810.05078"
         id="tspan4113"
         sodipodi:role="line">–</tspan></text>
    <text
       sodipodi:linespacing="125%"
       id="text4115"
       y="1028.2709"
       x="674.89453"
       style="font-size:14px;font-style:normal;font-variant:normal;font-weight:normal;font-stretch:normal;line-height:125%;letter-spacing:0px;word-spacing:0px;fill:#000000;fill-opacity:1;stroke:none;font-family:Serif;-inkscape-font-specification:Sans"
       xml:space="preserve"><tspan
         y="1028.2709"
         x="674.89453"
         id="tspan4117"
         sodipodi:role="line">–</tspan></text>
  </g>
  <g
     inkscape:groupmode="layer"
     id="layer13"
     inkscape:label="planes0"
     transform="translate(78.230484,80.479654)"
     style="display:none">
    <g
       id="g3990">
      <path
         inkscape:transform-center-x="-61.366767"
         transform="translate(-78.230484,-80.479654)"
         inkscape:connector-curvature="0"
         id="path3986"
         d="m 651.60714,149.98709 c 40,40.17858 47.32143,51.25 67.14286,84.64286 19.82143,33.39286 27.5,51.60714 39.46429,98.03572 11.96428,46.42857 13.21428,58.92857 14.82143,105.17857 1.60714,46.25 0,64.10714 -7.85715,106.60714 -7.85714,42.5 -10.71428,58.39286 -28.57143,103.92857 -17.85714,45.53572 -20.35714,52.32143 -48.21428,95.17857 -27.85714,42.85715 -31.42857,48.21429 -67.32143,82.67857 -35.89286,34.46429 -45.35714,39.64286 -84.46429,63.21429 -39.10714,23.57143 -65.35714,28.39286 -101.25,38.03571"
         style="fill:none;stroke:#000000;stroke-width:1px;stroke-linecap:butt;stroke-linejoin:miter;stroke-opacity:1" />
      <path
         style="fill:none;stroke:#000000;stroke-width:1px;stroke-linecap:butt;stroke-linejoin:miter;stroke-opacity:1"
         d="m 356.38378,847.00744 c -40,-40.17858 -47.32143,-51.25 -67.14286,-84.64286 -19.82143,-33.39286 -27.5,-51.60714 -39.46429,-98.03572 -11.96428,-46.42857 -13.21428,-58.92857 -14.82143,-105.17857 -1.60714,-46.25 0,-64.10714 7.85715,-106.60714 7.85714,-42.5 10.71428,-58.39286 28.57143,-103.92857 17.85714,-45.53572 20.35714,-52.32143 48.21428,-95.17857 27.85714,-42.85715 31.42857,-48.21429 67.32143,-82.67857 35.89286,-34.46429 45.35714,-39.64286 84.46429,-63.21429 39.10714,-23.571434 65.35714,-28.392864 101.25,-38.035714"
         id="path3988"
         inkscape:connector-curvature="0"
         inkscape:transform-center-x="61.36677" />
    </g>
  </g>
  <g
     inkscape:groupmode="layer"
     id="layer12"
     inkscape:label="plane0"
     style="display:none"
     transform="translate(78.230484,80.479654)">
    <g
       id="g3844"
       transform="matrix(0.84396587,0,0,1,72.623719,0)">
      <path
         inkscape:connector-curvature="0"
         id="path3840"
         d="m 465.55405,54.506757 c 0,0 31.76738,9.993242 57.48167,22.850385 25.71428,12.857142 37.85714,20.178571 52.67857,31.071428 14.82143,10.89286 30.89285,21.96429 45.71428,37.32143 14.82143,15.35714 28.03572,29.28571 38.75,43.92857 10.71429,14.64286 21.96429,29.82143 31.78572,47.85714 9.82143,18.03572 16.60714,28.75 25.17857,51.96429 8.57143,23.21428 14.10714,38.92857 18.39286,55 4.28571,16.07143 8.57142,37.14286 10.89285,56.25 2.32143,19.10714 3.75,36.42857 3.75,57.32143 0,20.89286 -1.07143,36.25 -3.75,57.5 -2.67857,21.25 -5.35714,36.78571 -10.53571,56.07143 -5.17857,19.28571 -8.75,30.17857 -18.57143,55.17857 C 707.5,651.82143 705,655.75 692.5,678.25 c -12.5,22.5 -13.57143,23.92857 -32.32143,48.57143 -18.75,24.64286 -17.85714,23.92857 -38.75,43.57143 -20.89285,19.64285 -28.21428,25.71428 -45.89285,37.67857 -17.67858,11.96428 -30.71429,20.35714 -52.14286,30.53571 -21.42857,10.17857 -57.67857,22.5 -57.67857,22.5"
         style="fill:none;stroke:#ff0000;stroke-width:1.08852291px;stroke-linecap:butt;stroke-linejoin:miter;stroke-opacity:1" />
      <path
         style="fill:none;stroke:#ff0000;stroke-width:1.08852291px;stroke-linecap:butt;stroke-linejoin:miter;stroke-opacity:1"
         d="m 465.31555,54.506757 c 0,0 -31.76738,9.993242 -57.48167,22.850385 -25.71428,12.857142 -37.85714,20.178571 -52.67857,31.071428 -14.82143,10.89286 -30.89285,21.96429 -45.71428,37.32143 -14.82143,15.35714 -28.03572,29.28571 -38.75,43.92857 -10.71429,14.64286 -21.96429,29.82143 -31.78572,47.85714 -9.82143,18.03572 -16.60714,28.75 -25.17857,51.96429 -8.57143,23.21428 -14.10714,38.92857 -18.39286,55 -4.28571,16.07143 -8.57142,37.14286 -10.89285,56.25 -2.32143,19.10714 -3.75,36.42857 -3.75,57.32143 0,20.89286 1.07143,36.25 3.75,57.5 2.67857,21.25 5.35714,36.78571 10.53571,56.07143 5.17857,19.28571 8.75,30.17857 18.57143,55.17857 9.82143,25 12.32143,28.92857 24.82143,51.42857 12.5,22.5 13.57143,23.92857 32.32143,48.57143 18.75,24.64286 17.85714,23.92857 38.75,43.57143 20.89285,19.64285 28.21428,25.71428 45.89285,37.67857 17.67858,11.96428 30.71429,20.35714 52.14286,30.53571 21.42857,10.17857 57.67857,22.5 57.67857,22.5"
         id="path3842"
         inkscape:connector-curvature="0" />
    </g>
  </g>
</svg>
