<?xml version="1.0" encoding="UTF-8" standalone="no"?>
<!-- Created with Inkscape (http://www.inkscape.org/) -->

<svg
   xmlns:dc="http://purl.org/dc/elements/1.1/"
   xmlns:cc="http://creativecommons.org/ns#"
   xmlns:rdf="http://www.w3.org/1999/02/22-rdf-syntax-ns#"
   xmlns:svg="http://www.w3.org/2000/svg"
   xmlns="http://www.w3.org/2000/svg"
   xmlns:xlink="http://www.w3.org/1999/xlink"
   xmlns:sodipodi="http://sodipodi.sourceforge.net/DTD/sodipodi-0.dtd"
   xmlns:inkscape="http://www.inkscape.org/namespaces/inkscape"
   width="916"
   height="912"
   id="svg2"
   version="1.1"
   inkscape:version="0.48.4 r9939"
   sodipodi:docname="stereogrid.svg">
  <defs
     id="defs4" />
  <sodipodi:namedview
     id="base"
     pagecolor="#ffffff"
     bordercolor="#666666"
     borderopacity="1.0"
     inkscape:pageopacity="0.0"
     inkscape:pageshadow="2"
     inkscape:zoom="0.98994949"
     inkscape:cx="509.74135"
     inkscape:cy="480.15482"
     inkscape:document-units="px"
     inkscape:current-layer="layer11"
     showgrid="false"
     fit-margin-top="0"
     fit-margin-left="0"
     fit-margin-right="0"
     fit-margin-bottom="0"
     inkscape:window-width="1366"
     inkscape:window-height="723"
     inkscape:window-x="0"
     inkscape:window-y="0"
     inkscape:window-maximized="1" />
  <metadata
     id="metadata7">
    <rdf:RDF>
      <cc:Work
         rdf:about="">
        <dc:format>image/svg+xml</dc:format>
        <dc:type
           rdf:resource="http://purl.org/dc/dcmitype/StillImage" />
        <dc:title />
      </cc:Work>
    </rdf:RDF>
  </metadata>
  <g
     inkscape:groupmode="layer"
     id="layer11"
     inkscape:label="black"
     style="display:none">
    <rect
       style="fill:#000000;fill-opacity:1;stroke:#ff0000;stroke-width:1;stroke-linejoin:round;stroke-miterlimit:4;stroke-opacity:0.77184466;stroke-dasharray:1, 2;stroke-dashoffset:0"
       id="rect3837"
       width="904.28571"
       height="808.57141"
       x="8.5714283"
       y="56.285713" />
  </g>
  <g
     inkscape:label="StereoGrid"
     inkscape:groupmode="layer"
     id="layer1"
     transform="translate(86.571426,-56.362186)"
     style="opacity:0.58273381;display:inline"
     sodipodi:insensitive="true">
    <image
       y="56.362186"
       x="-86.571426"
       id="image3047"
       xlink:href="file:///media/sagemuej/Zinc:R301WkSpace/physics/lect/geo-seis/WS1516/Ex6/stereogrid.png"
       height="912"
       width="916"
       inkscape:transform-center-x="7.0710678"
       inkscape:transform-center-y="-2.0089286" />
  </g>
  <g
     transform="translate(86.571426,-56.362186)"
     id="g3069"
     inkscape:groupmode="layer"
     inkscape:label="StereoGrid rotatable"
     style="display:none">
    <image
       inkscape:transform-center-y="-3.3240679"
       inkscape:transform-center-x="6.5563909"
       width="916"
       height="912"
       xlink:href="file:///media/sagemuej/Zinc:R301WkSpace/physics/lect/geo-seis/WS1516/Ex6/stereogrid.png"
       id="image3071"
       x="4.8025475"
       y="-25.506479"
       transform="matrix(0.98154708,0.19122062,-0.19122062,0.98154708,0,0)" />
  </g>
  <g
     inkscape:groupmode="layer"
     id="layer10"
     inkscape:label="c-">
    <path
       sodipodi:type="arc"
       id="path3834"
       style="fill:#548a0b;stroke:none;fill-opacity:1"
       sodipodi:cx="705.71429"
       sodipodi:cy="504.67856"
       sodipodi:rx="1.5"
       sodipodi:ry="1.5"
       d="m 707.21429,504.67856 a 1.5,1.5 0 1 1 -3,0 1.5,1.5 0 1 1 3,0 z" />
  </g>
  <g
     inkscape:groupmode="layer"
     id="layer9"
     inkscape:label="dd">
    <path
       sodipodi:type="arc"
       id="path3821"
       style="fill:#1700ff;stroke:none;fill-opacity:1"
       sodipodi:cx="365.35715"
       sodipodi:cy="486.46429"
       sodipodi:rx="1.5"
       sodipodi:ry="1.5"
       d="m 366.85715,486.46429 a 1.5,1.5 0 1 1 -3,0 1.5,1.5 0 1 1 3,0 z" />
    <path
       sodipodi:type="arc"
       id="path3825"
       style="fill:#1700ff;stroke:none;fill-opacity:1"
       sodipodi:cx="397.5"
       sodipodi:cy="472.53571"
       sodipodi:rx="1.5"
       sodipodi:ry="1.5"
       d="m 399,472.53571 a 1.5,1.5 0 1 1 -3,0 1.5,1.5 0 1 1 3,0 z" />
    <path
       sodipodi:type="arc"
       id="path3827"
       style="fill:#1700ff;stroke:none;fill-opacity:1"
       sodipodi:cx="401.25"
       sodipodi:cy="539.32141"
       sodipodi:rx="1.5"
       sodipodi:ry="1.5"
       d="m 402.75,539.32141 a 1.5,1.5 0 1 1 -3,0 1.5,1.5 0 1 1 3,0 z"
       transform="translate(-0.35714286,0.71428572)" />
    <path
       sodipodi:type="arc"
       id="path3829"
       style="fill:#1700ff;stroke:none;fill-opacity:1"
       sodipodi:cx="514.92523"
       sodipodi:cy="538.24353"
       sodipodi:rx="1.5"
       sodipodi:ry="1.5"
       d="m 516.42523,538.24353 a 1.5,1.5 0 1 1 -3,0 1.5,1.5 0 1 1 3,0 z" />
    <path
       sodipodi:type="arc"
       id="path3831"
       style="fill:#1700ff;stroke:none;fill-opacity:1"
       sodipodi:cx="567.58929"
       sodipodi:cy="700.03571"
       sodipodi:rx="1.5"
       sodipodi:ry="1.5"
       d="m 569.08929,700.03571 a 1.5,1.5 0 1 1 -3,0 1.5,1.5 0 1 1 3,0 z" />
  </g>
  <g
     inkscape:groupmode="layer"
     id="layer8"
     inkscape:label="+c">
    <path
       sodipodi:type="arc"
       id="path3818"
       style="fill:#ff0034;stroke:none;fill-opacity:1"
       sodipodi:cx="202.53558"
       sodipodi:cy="476.24545"
       sodipodi:rx="1.5"
       sodipodi:ry="1.5"
       d="m 204.03558,476.24545 a 1.5,1.5 0 1 1 -3,0 1.5,1.5 0 1 1 3,0 z" />
  </g>
  <g
     inkscape:groupmode="layer"
     id="layer6"
     inkscape:label="dc">
    <path
       sodipodi:type="arc"
       id="path3810"
       style="fill:#ff009e;stroke:none;fill-opacity:1"
       sodipodi:cx="234.73421"
       sodipodi:cy="373.84122"
       sodipodi:rx="1.5"
       sodipodi:ry="1.5"
       d="m 236.23421,373.84122 a 1.5,1.5 0 1 1 -3,0 1.5,1.5 0 1 1 3,0 z" />
    <path
       sodipodi:type="arc"
       id="path3812"
       style="fill:#ff009e;stroke:none;fill-opacity:1"
       sodipodi:cx="181.82745"
       sodipodi:cy="427.8844"
       sodipodi:rx="1.5"
       sodipodi:ry="1.5"
       d="m 183.32745,427.8844 a 1.5,1.5 0 1 1 -3,0 1.5,1.5 0 1 1 3,0 z" />
    <path
       sodipodi:type="arc"
       id="path3814"
       style="fill:#ff009e;stroke:none;fill-opacity:1"
       sodipodi:cx="242.67857"
       sodipodi:cy="458.07144"
       sodipodi:rx="1.5"
       sodipodi:ry="1.5"
       d="m 244.17857,458.07144 a 1.5,1.5 0 1 1 -3,0 1.5,1.5 0 1 1 3,0 z" />
  </g>
  <g
     inkscape:groupmode="layer"
     id="layer5"
     inkscape:label="cc">
    <path
       sodipodi:type="arc"
       id="path3801"
       style="fill:#ff0000;stroke:none;fill-opacity:1"
       sodipodi:cx="774.4082"
       sodipodi:cy="320.17688"
       sodipodi:rx="1.5"
       sodipodi:ry="1.5"
       d="m 775.9082,320.17688 a 1.5,1.5 0 1 1 -3,0 1.5,1.5 0 1 1 3,0 z" />
    <path
       sodipodi:type="arc"
       id="path3803"
       style="fill:#ff0000;stroke:none;fill-opacity:1"
       sodipodi:cx="80.714287"
       sodipodi:cy="450.92856"
       sodipodi:rx="1.5"
       sodipodi:ry="1.5"
       d="m 82.214287,450.92856 a 1.5,1.5 0 1 1 -3,0 1.5,1.5 0 1 1 3,0 z"
       transform="translate(-0.39285714,0.17857143)" />
    <path
       sodipodi:type="arc"
       id="path3805"
       style="fill:#ff0000;stroke:none;fill-opacity:1"
       sodipodi:cx="167.32143"
       sodipodi:cy="504.85715"
       sodipodi:rx="1.5"
       sodipodi:ry="1.5"
       d="m 168.82143,504.85715 a 1.5,1.5 0 1 1 -3,0 1.5,1.5 0 1 1 3,0 z" />
    <path
       sodipodi:type="arc"
       id="path3807"
       style="fill:#ff0000;stroke:none;fill-opacity:1"
       sodipodi:cx="235.71429"
       sodipodi:cy="490.03571"
       sodipodi:rx="1.5"
       sodipodi:ry="1.5"
       d="m 237.21429,490.03571 a 1.5,1.5 0 1 1 -3,0 1.5,1.5 0 1 1 3,0 z" />
  </g>
  <g
     inkscape:groupmode="layer"
     id="layer4"
     inkscape:label="-d">
    <path
       sodipodi:type="arc"
       id="path3796"
       style="fill:#0031ff;stroke:none;fill-opacity:1"
       sodipodi:cx="430.83005"
       sodipodi:cy="310.07535"
       sodipodi:rx="1.5"
       sodipodi:ry="1.5"
       d="m 432.33005,310.07535 a 1.5,1.5 0 1 1 -3,0 1.5,1.5 0 1 1 3,0 z" />
    <path
       sodipodi:type="arc"
       id="path3798"
       style="fill:#0031ff;stroke:none;fill-opacity:1"
       sodipodi:cx="614.42529"
       sodipodi:cy="531.29877"
       sodipodi:rx="1.5"
       sodipodi:ry="1.5"
       d="m 615.92529,531.29877 a 1.5,1.5 0 1 1 -3,0 1.5,1.5 0 1 1 3,0 z" />
  </g>
  <g
     inkscape:groupmode="layer"
     id="layer3"
     inkscape:label="cn"
     style="display:inline">
    <path
       sodipodi:type="arc"
       id="path3791"
       style="fill:#a8a50f;fill-opacity:1;stroke:none"
       sodipodi:cx="465.17526"
       sodipodi:cy="262.97699"
       sodipodi:rx="1.5"
       sodipodi:ry="1.5"
       d="m 466.67526,262.97699 a 1.5,1.5 0 1 1 -3,0 1.5,1.5 0 1 1 3,0 z" />
    <path
       sodipodi:type="arc"
       id="path3793"
       style="fill:#a8a50f;fill-opacity:1;stroke:none"
       sodipodi:cx="254.82143"
       sodipodi:cy="514.5"
       sodipodi:rx="1.5"
       sodipodi:ry="1.5"
       d="m 256.32143,514.5 a 1.5,1.5 0 1 1 -3,0 1.5,1.5 0 1 1 3,0 z"
       transform="translate(0.89285714,3.3928571)" />
  </g>
  <g
     inkscape:groupmode="layer"
     id="layer2"
     inkscape:label="cd"
     style="display:inline">
    <path
       sodipodi:type="arc"
       id="path3774"
       style="fill:#139600;fill-opacity:1;stroke:none"
       sodipodi:cx="620.35712"
       sodipodi:cy="125.57143"
       sodipodi:rx="1.5"
       sodipodi:ry="1.5"
       d="m 621.85712,125.57143 a 1.5,1.5 0 1 1 -3,0 1.5,1.5 0 1 1 3,0 z" />
    <path
       sodipodi:type="arc"
       id="path3776"
       style="fill:#139600;fill-opacity:1;stroke:none"
       sodipodi:cx="517.85712"
       sodipodi:cy="406.28571"
       sodipodi:rx="1.5"
       sodipodi:ry="1.5"
       d="m 519.35712,406.28571 a 1.5,1.5 0 1 1 -3,0 1.5,1.5 0 1 1 3,0 z" />
    <path
       sodipodi:type="arc"
       id="path3784"
       style="fill:#139600;fill-opacity:1;stroke:none"
       sodipodi:cx="318.19806"
       sodipodi:cy="497.58493"
       sodipodi:rx="1.5"
       sodipodi:ry="1.5"
       d="m 319.69806,497.58493 a 1.5,1.5 0 1 1 -3,0 1.5,1.5 0 1 1 3,0 z" />
    <path
       sodipodi:type="arc"
       id="path3786"
       style="fill:#139600;fill-opacity:1;stroke:none"
       sodipodi:cx="362.5"
       sodipodi:cy="535.57141"
       sodipodi:rx="1.5"
       sodipodi:ry="1.5"
       d="m 364,535.57141 a 1.5,1.5 0 1 1 -3,0 1.5,1.5 0 1 1 3,0 z" />
    <path
       sodipodi:type="arc"
       id="path3788"
       style="fill:#139600;fill-opacity:1;stroke:none"
       sodipodi:cx="254.28571"
       sodipodi:cy="622.35712"
       sodipodi:rx="1.5"
       sodipodi:ry="1.5"
       d="m 255.78571,622.35712 a 1.5,1.5 0 1 1 -3,0 1.5,1.5 0 1 1 3,0 z" />
  </g>
</svg>
